<?xml version="1.0" encoding="UTF-8"?>
<svg width="21px" height="23px" viewBox="0 0 21 23" version="1.1" xmlns="http://www.w3.org/2000/svg" xmlns:xlink="http://www.w3.org/1999/xlink">
    <!-- Generator: Sketch 57.1 (83088) - https://sketch.com -->
    <title>icon_articles</title>
    <desc>Created with Sketch.</desc>
    <g id="Page-1" stroke="none" stroke-width="1" fill="none" fill-rule="evenodd">
        <g id="bj_offers" transform="translate(-102.000000, -737.000000)" fill="currentColor" fill-rule="nonzero">
            <g id="UI-Bars-/-Tab-Bars-/-Base-/-Light-/-5-Text-Icons" transform="translate(0.000000, 729.000000)">
                <g id="#2">
                    <g transform="translate(50.000000, 0.000000)">
                        <path d="M69.4394464,8 L52,8 L52,24.7882188 C52,28.101683 54.6522491,30.826087 57.9584775,30.826087 L68.2404844,30.826087 L68.8581315,30.826087 L69.5121107,30.826087 C71.4377163,30.826087 73,29.2429874 73,27.2917251 L73,11.4975456 L69.4757785,11.4975456 L69.4757785,8 L69.4394464,8 Z M57.9584775,29.6111501 C55.3425606,29.6111501 53.2352941,27.4389902 53.2352941,24.8250351 L53.2352941,9.25175316 L68.2404844,9.25175316 L68.2404844,11.5343619 L68.2404844,24.8250351 L68.2404844,29.6111501 L57.9584775,29.6111501 Z M71.7647059,12.7124825 L71.7647059,27.2917251 C71.7647059,28.5434783 70.7474048,29.5743338 69.5121107,29.5743338 L69.4757785,29.5743338 L69.4757785,24.7882188 L69.4757785,12.7124825 L71.7647059,12.7124825 Z M60.7197232,11.4975456 L66.2785467,11.4975456 L66.2785467,12.7124825 L60.7197232,12.7124825 L60.7197232,11.4975456 Z M60.7197232,14.3692146 L66.2785467,14.3692146 L66.2785467,15.5841515 L60.7197232,15.5841515 L60.7197232,14.3692146 Z M55.1972318,17.2776999 L66.2785467,17.2776999 L66.2785467,18.4926367 L55.1972318,18.4926367 L55.1972318,17.2776999 Z M55.1972318,20.1493689 L66.2785467,20.1493689 L66.2785467,21.3643058 L55.1972318,21.3643058 L55.1972318,20.1493689 Z M55.1972318,23.0210379 L66.2785467,23.0210379 L66.2785467,24.2359748 L55.1972318,24.2359748 L55.1972318,23.0210379 Z M57.449827,25.8927069 L66.2785467,25.8927069 L66.2785467,27.1076438 L57.449827,27.1076438 L57.449827,25.8927069 Z M59.2301038,11.4975456 L55.1608997,11.4975456 L55.1608997,15.6209677 L59.2301038,15.6209677 L59.2301038,11.4975456 Z M58.0311419,14.3692146 L56.3961938,14.3692146 L56.3961938,12.7124825 L58.0311419,12.7124825 L58.0311419,14.3692146 Z" id="icon_articles"></path>
                    </g>
                </g>
            </g>
        </g>
    </g>
</svg>