<?xml version="1.0" encoding="UTF-8"?>
<svg width="54px" height="54px" viewBox="0 0 54 54" version="1.1" xmlns="http://www.w3.org/2000/svg" xmlns:xlink="http://www.w3.org/1999/xlink">
    <!-- Generator: Sketch 57.1 (83088) - https://sketch.com -->
    <title>icon_baby_now</title>
    <desc>Created with Sketch.</desc>
    <g id="Page-1" stroke="none" stroke-width="1" fill="none" fill-rule="evenodd">
        <g id="bj_uc03_1" transform="translate(-161.000000, -304.000000)" fill="#4A4152" fill-rule="nonzero">
            <g id="image" transform="translate(129.000000, 273.000000)">
                <g id="icon_baby_now" transform="translate(32.000000, 31.000000)">
                    <path d="M25.536,8.4 C20.664,9.128 18.984,13.44 17.976,14.56 C17.08,15.848 15.736,15.68 12.768,16.8 C4.368,19.432 0.056,30.8 6.832,37.184 C10.64,40.768 12.824,42.448 18.368,41.44 C16.912,45.64 19.32,48.944 22.456,48.944 C26.768,48.944 31.08,42.784 27.888,39.256 C28.728,36.904 29.008,34.44 28.952,32.816 C29.12,32.704 30.912,32.256 31.64,30.296 C31.976,29.288 31.976,28.224 31.416,27.216 C40.096,20.496 34.104,7.168 25.536,8.4 Z M28.56,30.576 C26.096,31.64 25.984,31.864 25.2,31.64 C24.192,31.36 23.912,30.576 23.744,30.352 C23.352,29.456 22.456,27.776 20.664,24.416 C20.384,23.856 19.712,23.688 19.152,23.968 C18.592,24.248 18.424,24.92 18.704,25.48 C18.76,25.536 19.264,26.544 19.88,27.72 C17.976,29.568 17.528,30.856 16.8,30.352 C16.296,29.96 15.624,30.072 15.232,30.576 C14.392,31.64 15.736,32.704 17.136,32.704 C19.04,32.704 19.656,31.08 21,29.848 C21.504,30.8 21.392,30.632 21.952,31.64 C21.952,31.64 21.952,31.64 21.952,31.64 C22.848,33.32 24.696,34.328 26.712,33.824 C26.264,40.88 22.904,41.664 24.584,42.952 C25.088,43.344 25.76,43.232 26.152,42.728 C26.376,42.448 26.544,42.168 26.712,41.832 C27.104,44.352 23.408,48.048 21.112,46.256 C19.768,45.248 19.824,42.672 21.224,40.712 C21.28,40.656 21.28,40.6 21.28,40.544 C27.104,37.912 23.632,35.224 22.568,36.848 C20.776,39.48 14.672,40.208 12.152,38.64 C11.2,38.08 10.584,37.632 8.4,35.56 C2.8,30.352 6.72,21.112 13.44,18.984 C16.52,17.864 18.312,17.976 19.768,15.904 C20.832,14.672 22.064,11.2 25.816,10.64 C27.44,10.416 29.008,10.864 30.24,11.872 C32.816,13.944 34.384,19.432 32.48,22.624 C31.36,24.584 29.008,26.6 26.992,26.88 C25.256,23.184 25.256,20.104 22.176,18.872 C19.768,17.92 17.976,19.264 17.64,19.32 C17.08,19.6 16.856,20.272 17.08,20.832 C17.36,21.392 18.032,21.616 18.592,21.392 L19.32,21.056 C23.968,18.816 23.912,29.064 26.208,29.176 C26.208,29.176 26.264,29.176 26.264,29.176 C26.264,29.176 26.264,29.176 26.264,29.176 C26.264,29.176 26.264,29.176 26.264,29.176 C27.328,29.232 28.392,28.952 29.4,28.448 C29.792,29.232 29.344,30.24 28.56,30.576 Z" id="Shape"></path>
                    <path d="M24.36,16.688 C24.472,16.744 24.584,16.744 24.752,16.744 C25.2,16.744 25.648,16.464 25.816,16.016 C25.872,15.792 26.096,15.288 26.656,15.456 C27.216,15.68 27.888,15.344 28.056,14.784 C28.28,14.224 27.944,13.552 27.384,13.328 C27.272,13.272 26.264,12.936 25.256,13.44 C23.912,14.056 22.904,16.184 24.36,16.688 Z" id="Path"></path>
                    <path d="M8.064,47.768 C12.432,51.8 18.032,54.152 24.024,53.704 C30.912,53.144 30.856,46.928 33.208,40.88 C33.656,43.792 35.056,47.208 38.864,48.832 C43.512,50.792 43.96,52.36 43.96,52.528 C43.904,53.088 44.24,53.648 44.8,53.76 C44.912,53.76 44.968,53.816 45.024,53.816 C45.528,53.816 45.976,53.48 46.088,52.92 C46.256,52.192 46.312,49.56 39.648,46.816 C34.776,44.688 35.168,38.08 35.28,36.792 C35.392,36.624 35.504,36.4 35.672,36.232 C36.904,38.864 39.928,43.624 45.528,43.12 C50.456,42.672 51.52,43.792 51.576,43.96 C51.744,44.408 52.136,44.744 52.64,44.744 C52.696,44.744 52.808,44.744 52.864,44.744 C53.48,44.632 53.872,44.016 53.704,43.4 C53.536,42.672 52.472,40.264 45.304,40.936 C40.32,41.384 37.8,35.784 37.24,34.272 C37.408,34.048 37.576,33.88 37.8,33.656 C41.496,29.904 43.064,24.976 42.28,19.824 C41.44,14.28 38.024,9.408 33.096,6.72 C32.592,6.44 32.536,5.936 32.592,4.088 C32.648,3.248 32.648,2.24 32.592,1.12 C32.536,0.504 31.976,0.056 31.416,0.056 C30.8,0.112 30.352,0.616 30.352,1.232 C30.408,2.24 30.408,3.192 30.352,3.976 C30.296,5.88 30.24,7.672 31.976,8.68 C36.232,10.976 39.312,15.4 40.04,20.16 C40.712,24.584 39.312,28.84 36.176,32.088 C32.032,36.344 30.744,40.88 29.624,44.52 C28.28,49.056 27.496,51.24 23.8,51.52 C18.76,51.912 13.664,50.008 9.52,46.2 C0.28,37.52 -0.616,23.912 9.464,13.944 C14.056,9.408 19.824,6.776 24.976,6.832 C26.656,6.888 28.112,5.432 28.112,3.584 L28.112,1.12 C28.112,0.504 27.608,0 26.992,0 C26.376,0 25.872,0.504 25.872,1.12 C25.816,2.968 26.32,4.592 24.808,4.592 C19.152,4.592 12.824,7.504 7.896,12.376 C2.856,17.304 0,23.632 0,29.736 C0,36.456 2.912,43.064 8.064,47.768 Z" id="Path"></path>
                </g>
            </g>
        </g>
    </g>
</svg>