<?xml version="1.0" encoding="UTF-8"?>
<svg width="26px" height="22px" viewBox="0 0 26 22" version="1.1" xmlns="http://www.w3.org/2000/svg" xmlns:xlink="http://www.w3.org/1999/xlink">
    <!-- Generator: Sketch 57.1 (83088) - https://sketch.com -->
    <title>icon_baby</title>
    <desc>Created with Sketch.</desc>
    <g id="Page-1" stroke="none" stroke-width="1" fill="none" fill-rule="evenodd">
        <g id="bj_uc01-copy-2" transform="translate(-326.000000, -138.000000)">
            <g id="Group" transform="translate(14.000000, 127.000000)">
                <g id="birth" transform="translate(303.000000, 0.000000)">
                    <g id="icon_baby" transform="translate(9.000000, 11.000000)">
                        <g id="Group" transform="translate(9.000000, 14.000000)"></g>
                        <path d="M23.3896248,13.0226859 L23.1724433,13.1026695 L23.1217996,13.3285021 C22.0299184,18.1974697 17.7132972,21.6623048 12.7234186,21.6750014 C12.5893809,21.6750014 12.478909,21.6690907 12.2180392,21.6505674 C11.9403225,21.6308478 11.8107845,21.624 11.645,21.624 C7.13413372,21.1242322 3.39551952,17.789349 2.37790026,13.3186738 L2.32621431,13.0916036 L2.10701523,13.0129645 C1.05897787,12.6369746 0.377705012,11.6225781 0.426142279,10.5101913 C0.474579546,9.39780437 1.2414475,8.44646513 2.31820004,8.16299605 L2.5457145,8.10309991 L2.6157386,7.87849581 C3.19339241,6.02565622 4.26750888,4.36642894 5.72150783,3.08089966 C5.83638839,2.98038665 5.99845511,2.94833795 6.14501567,2.99827141 C6.29157623,3.04820487 6.40036458,3.17253442 6.43040121,3.32442632 C6.46043785,3.47631821 6.40715947,3.63269647 6.29063555,3.7346549 C4.82493822,5.02927317 3.78184723,6.73164719 3.29443986,8.62346581 L3.28641749,8.68675851 C3.26458417,8.72806505 3.24578468,8.75736958 3.22459608,8.78492328 L3.20234127,8.80889067 L3.08562362,8.89318675 C3.01826836,8.91895063 2.99535399,8.92457087 2.97196645,8.92661658 L2.9495,8.925 C2.02923539,8.88472303 1.23532391,9.61268659 1.19464847,10.5513506 C1.15397303,11.4900146 1.88193659,12.2839261 2.8206006,12.3246015 C2.85228412,12.3256944 2.87948545,12.3322602 2.9045477,12.3440533 C2.9655849,12.3674379 2.97737259,12.3729389 2.98837564,12.3797893 C2.99193516,12.3829167 3.01169823,12.4000447 3.02946985,12.4191295 C3.07629094,12.4629359 3.10158776,12.4877808 3.12272158,12.5106421 L3.13589522,12.5684993 C3.14551264,12.5885237 3.15373718,12.6091768 3.16051447,12.6303111 C3.96940709,17.3911341 8.03721225,20.8246713 12.801,20.8246713 C17.5787221,20.8246713 21.6563841,17.3710181 22.4427045,12.6584468 C22.4573911,12.619125 22.468752,12.5887072 22.4710651,12.5613202 C22.4953119,12.5211274 22.5140195,12.4894129 22.5286082,12.4610456 C22.5337323,12.4562698 22.538911,12.4515516 22.5441435,12.4468919 C22.5949154,12.3932488 22.6026821,12.3865176 22.6113826,12.3811754 L22.695348,12.3488669 C22.7402692,12.3262968 22.7554535,12.3209822 22.7711843,12.3181159 C23.5995951,12.2021356 24.2276401,11.4774682 24.224998,10.6236848 C24.2380071,9.71404551 23.517926,8.95368013 22.6015711,8.91684299 L22.508,8.9165 C22.5347782,8.91524508 22.4939643,8.9038172 22.4547912,8.88798059 L22.3835658,8.85086844 C22.3946612,8.85603801 22.3784307,8.84267173 22.3644145,8.82715145 L22.2659362,8.72790649 C22.2851301,8.74703297 22.2723491,8.72480642 22.2624778,8.70124906 L22.2356584,8.64283835 L22.2310242,8.60632656 C21.1000254,4.22261783 17.1068753,1.18914742 12.5804333,1.27507656 L12.495,1.275 C10.9402134,1.38140217 9.7608363,2.65687662 9.77501828,4.18594168 C9.79106849,5.8577256 11.1422744,7.20893151 12.8139199,7.22498041 C13.052721,7.225 13.243,7.41527898 13.243,7.65 C13.243,7.88472102 13.052721,8.075 12.818,8.075 C10.6700778,8.07078342 8.92921658,6.32992219 8.92499918,4.18116585 C8.92241272,2.17883997 10.4910694,0.526208101 12.4910952,0.424450997 L12.5715,0.425 C17.2943108,0.34555261 21.4979044,3.38425487 22.9012499,7.88695902 L22.9703775,8.10875818 L23.1943968,8.17031157 C24.3006649,8.47427883 25.0692423,9.47745496 25.0749934,10.6245268 C25.0672345,11.6967375 24.3959449,12.6520784 23.3896248,13.0226859 Z" id="Path" fill="#4A4152" fill-rule="nonzero"></path>
                        <path d="M10.2,12.75 C10.669442,12.75 11.05,12.369442 11.05,11.9 C11.05,11.430558 10.669442,11.05 10.2,11.05 L10.2,11.05 C9.73055796,11.05 9.35,11.430558 9.35,11.9 C9.35,12.369442 9.73055796,12.75 10.2,12.75 Z" id="Path" fill="#4A4152" fill-rule="nonzero"></path>
                        <path d="M15.3,12.75 C15.769442,12.75 16.15,12.369442 16.15,11.9 C16.15,11.430558 15.769442,11.05 15.3,11.05 L15.3,11.05 C14.830558,11.05 14.45,11.430558 14.45,11.9 C14.45,12.369442 14.830558,12.75 15.3,12.75 Z" id="Path" fill="#4A4152" fill-rule="nonzero"></path>
                        <path d="M12.75,14.021209 C11.8482316,14.021209 11.0446655,14.5903666 10.7454167,15.4410348 L10.6331508,15.7601704 L10.2969671,15.7223335 C10.2805409,15.7204848 10.2639591,15.7204848 10.2,15.725 C9.96527898,15.725 9.775,15.915279 9.775,16.15 C9.775,16.384721 9.96527898,16.575 10.2,16.575 L10.2447368,16.5773611 C10.2602024,16.5789982 10.2757976,16.5789982 10.2912632,16.5773611 L10.6254113,16.5419911 L10.7369167,16.8589652 C11.0361655,17.7096334 11.8397316,18.278791 12.7415,18.278791 C13.6432684,18.278791 14.4468345,17.7096334 14.7460833,16.8589652 L14.854438,16.5509476 L15.1799741,16.5762811 C15.2089476,16.5785358 15.2380524,16.5785358 15.3,16.575 C15.534721,16.575 15.725,16.384721 15.725,16.15 C15.725,15.915279 15.534721,15.725 15.2318396,15.7194987 L15.2236604,15.7194987 L14.872607,15.7765381 L14.7545833,15.4410348 C14.4553345,14.5903666 13.6517684,14.021209 12.75,14.021209 Z M12.75,14.875 C13.4541631,14.875 14.025,15.4458369 14.025,16.15 C14.025,16.8541631 13.4541631,17.425 12.75,17.425 C12.0458369,17.425 11.475,16.8541631 11.475,16.15 C11.475,15.4458369 12.0458369,14.875 12.75,14.875 Z M12.75,15.725 C12.515279,15.725 12.325,15.915279 12.325,16.15 C12.325,16.384721 12.515279,16.575 12.75,16.575 C12.984721,16.575 13.175,16.384721 13.175,16.15 C13.175,15.915279 12.984721,15.725 12.75,15.725 Z" id="Shape" fill="#4A4152" fill-rule="nonzero"></path>
                    </g>
                </g>
            </g>
        </g>
    </g>
</svg>