<?xml version="1.0" encoding="UTF-8"?>
<svg width="44px" height="34px" viewBox="0 0 44 34" version="1.1" xmlns="http://www.w3.org/2000/svg" xmlns:xlink="http://www.w3.org/1999/xlink">
    <!-- Generator: Sketch 57.1 (83088) - https://sketch.com -->
    <title>icn_blog</title>
    <desc>Created with Sketch.</desc>
    <g id="Page-1" stroke="none" stroke-width="1" fill="none" fill-rule="evenodd">
        <g id="bj_tools" transform="translate(-290.000000, -132.000000)" fill="#FF8B8C" fill-rule="nonzero">
            <path d="M293.063056,132.001099 C291.383485,132.001099 290,133.384288 290,135.0635 L290,162.937599 C290,164.616811 291.383485,166 293.063056,166 L320.943113,166 C322.622684,166 324.006169,164.616811 324.006169,162.937599 L324.006169,153.922265 L333.711054,144.235079 C334.096315,143.845473 334.096315,143.21848 333.711054,142.828874 L329.178982,138.297771 C328.967129,138.080751 328.668226,137.971559 328.366335,138.000905 C328.140349,138.029375 327.93085,138.134103 327.772477,138.297771 L324.006169,142.078898 L324.006169,135.0635 C324.006169,133.384288 322.622684,132.001099 320.943113,132.001099 C320.911875,131.999634 320.880585,131.999634 320.849346,132.001099 C320.491965,132.017776 320.170639,132.223831 320.006436,132.541627 C319.842234,132.859422 319.860108,133.240665 320.053325,133.54171 C320.246542,133.842755 320.585739,134.017854 320.943113,134.001034 C321.551567,134.001034 322.005806,134.455176 322.005806,135.0635 L322.005806,144.078834 L313.301102,152.797302 C313.113052,152.983211 313.006292,153.236008 313.004173,153.500404 L313.004173,158.000259 C313.004228,158.552503 313.451992,159.000171 314.004355,159.000226 L318.505171,159.000226 C318.769624,158.998107 319.022475,158.891371 319.208424,158.703361 L322.005806,155.906576 L322.005806,162.937599 C322.005806,163.545923 321.551567,164.000065 320.943113,164.000065 L293.063056,164.000065 C292.454602,164.000065 292.000363,163.545923 292.000363,162.937599 L292.000363,135.0635 C292.000363,134.455176 292.454602,134.001034 293.063056,134.001034 L317.004899,134.001034 C317.365599,134.006133 317.701104,133.816664 317.882943,133.505177 C318.064781,133.19369 318.064781,132.808444 317.882943,132.496957 C317.701104,132.18547 317.365599,131.996 317.004899,132.001099 L293.063056,132.001099 Z M296.907503,139.000873 C296.550122,139.01755 296.228795,139.223605 296.064593,139.5414 C295.90039,139.859196 295.918265,140.240438 296.111482,140.541484 C296.304699,140.842529 296.643895,141.017628 297.00127,141.000808 L317.004899,141.000808 C317.365599,141.005907 317.701104,140.816437 317.882943,140.50495 C318.064781,140.193463 318.064781,139.808218 317.882943,139.496731 C317.701104,139.185244 317.365599,138.995774 317.004899,139.000873 L297.00127,139.000873 C296.970032,138.999407 296.938742,138.999407 296.907503,139.000873 Z M328.47573,140.407077 L331.601297,143.531976 L329.77284,145.360042 L326.647273,142.235143 L328.47573,140.407077 Z M325.240768,143.641348 L328.366335,146.766247 L318.098847,157.000291 L315.004536,157.000291 L315.004536,153.906641 L325.240768,143.641348 Z M296.907503,145.000679 C296.550122,145.017356 296.228795,145.223411 296.064593,145.541206 C295.90039,145.859002 295.918265,146.240244 296.111482,146.54129 C296.304699,146.842335 296.643895,147.017434 297.00127,147.000614 L317.004899,147.000614 C317.365599,147.005713 317.701104,146.816243 317.882943,146.504756 C318.064781,146.193269 318.064781,145.808024 317.882943,145.496537 C317.701104,145.18505 317.365599,144.99558 317.004899,145.000679 L297.00127,145.000679 C296.970032,144.999213 296.938742,144.999213 296.907503,145.000679 Z M296.907503,151.000485 C296.550122,151.017162 296.228795,151.223217 296.064593,151.541012 C295.90039,151.858808 295.918265,152.24005 296.111482,152.541096 C296.304699,152.842141 296.643895,153.01724 297.00127,153.00042 L310.081768,153.00042 C310.442468,153.005519 310.777973,152.816049 310.959812,152.504562 C311.141651,152.193075 311.141651,151.80783 310.959812,151.496343 C310.777973,151.184856 310.442468,150.995386 310.081768,151.000485 L297.00127,151.000485 C296.970032,150.999019 296.938742,150.999019 296.907503,151.000485 Z M296.907503,157.000291 C296.550122,157.016968 296.228795,157.223023 296.064593,157.540818 C295.90039,157.858614 295.918265,158.239856 296.111482,158.540902 C296.304699,158.841947 296.643895,159.017046 297.00127,159.000226 L310.003629,159.000226 C310.364329,159.005325 310.699834,158.815855 310.881673,158.504368 C311.063511,158.192881 311.063511,157.807636 310.881673,157.496149 C310.699834,157.184662 310.364329,156.995192 310.003629,157.000291 L297.00127,157.000291 C296.970032,156.998825 296.938742,156.998825 296.907503,157.000291 Z" id="icn_blog"></path>
        </g>
    </g>
</svg>