<?xml version="1.0" encoding="UTF-8"?>
<svg width="40px" height="40px" viewBox="0 0 40 40" version="1.1" xmlns="http://www.w3.org/2000/svg" xmlns:xlink="http://www.w3.org/1999/xlink">
    <!-- Generator: Sketch 57.1 (83088) - https://sketch.com -->
    <title>icn_kalender</title>
    <desc>Created with Sketch.</desc>
    <g id="Page-1" stroke="none" stroke-width="1" fill="none" fill-rule="evenodd">
        <g id="bj_tools" transform="translate(-290.000000, -248.000000)" fill="#FF8B8C" fill-rule="nonzero">
            <g id="icn_kalender" transform="translate(290.000000, 248.000000)">
                <path d="M35.7600499,0.182758908 L31.77967,0.182758908 L31.77967,3.57189343 C31.77967,4.34951788 31.1470824,4.9821902 30.369458,4.9821902 C29.5918335,4.9821902 28.9591612,4.34951787 28.9591612,3.57189343 L28.9591612,0.182758908 L10.4257928,0.182758908 L10.4257928,3.57189343 C10.4257928,4.34951788 9.79312045,4.9821902 9.01549602,4.9821902 C8.23787159,4.9821902 7.60528396,4.34951787 7.60528396,3.57189343 L7.60528396,0.182758908 L3.62490409,0.182758908 C1.6602142,0.182758908 0.0618439724,1.78112914 0.0618439724,3.74577666 L0.0618439724,35.8809649 C0.0618439724,37.84557 1.6602142,39.4439403 3.62490409,39.4439403 L35.7600499,39.4439403 C37.7247398,39.4439403 39.32311,37.84557 39.32311,35.8809649 L39.32311,3.74577667 C39.32311,1.78112914 37.7247398,0.182758908 35.7600499,0.182758908 Z M3.62490409,1.74427691 L6.04376595,1.74427691 L6.04376595,3.57189343 C6.04376595,5.21054697 7.37688484,6.5437082 9.01549601,6.5437082 C10.6541919,6.5437082 11.9873108,5.21054696 11.9873108,3.57189343 L11.9873108,1.74427691 L27.3976432,1.74427691 L27.3976432,3.57189343 C27.3976432,5.21054697 28.7307621,6.5437082 30.369458,6.5437082 C32.0080692,6.5437082 33.341188,5.21054696 33.341188,3.57189343 L33.341188,1.74427691 L35.7600499,1.74427691 C36.8636683,1.74427691 37.761592,2.64215823 37.761592,3.74577666 L37.761592,10.6858143 L1.62336197,10.6858143 L1.62336197,3.74577667 C1.62336197,2.64215823 2.52128566,1.74427691 3.62490409,1.74427691 Z M35.7600499,37.8824222 L3.62490409,37.8824222 C2.52128565,37.8824222 1.62336197,36.9845833 1.62336197,35.8809648 L1.62336197,12.2473323 L37.761592,12.2473323 L37.761592,35.8809649 C37.761592,36.9845833 36.8636683,37.8824222 35.7600499,37.8824222 Z" id="Shape"></path>
                <path d="M4.71691619,20.8923575 L10.4718793,20.8923575 L10.4718793,15.1374368 L4.71691619,15.1374368 L4.71691619,20.8923575 Z M6.27843419,16.6989548 L8.91036126,16.6989548 L8.91036126,19.3308395 L6.27843419,19.3308395 L6.27843419,16.6989548 Z" id="Shape"></path>
                <path d="M12.7733223,20.8923575 L18.5282006,20.8923575 L18.5282006,15.1374368 L12.7733223,15.1374368 L12.7733223,20.8923575 Z M14.3348403,16.6989548 L16.9666826,16.6989548 L16.9666826,19.3308395 L14.3348403,19.3308395 L14.3348403,16.6989548 Z" id="Shape"></path>
                <path d="M20.8296437,20.8923575 L26.5846067,20.8923575 L26.5846067,15.1374368 L20.8296437,15.1374368 L20.8296437,20.8923575 Z M22.3911617,16.6989548 L25.0230887,16.6989548 L25.0230887,19.3308395 L22.3911617,19.3308395 L22.3911617,16.6989548 Z" id="Shape"></path>
                <path d="M28.8860498,20.8923575 L34.6409281,20.8923575 L34.6409281,15.1374368 L28.8860498,15.1374368 L28.8860498,20.8923575 Z M30.4475678,16.6989548 L33.0794101,16.6989548 L33.0794101,19.3308395 L30.4475678,19.3308395 L30.4475678,16.6989548 Z" id="Shape"></path>
                <path d="M4.71691619,27.8727632 L10.4718793,27.8727632 L10.4718793,22.1178848 L4.71691619,22.1178848 L4.71691619,27.8727632 Z M6.27843419,23.6794028 L8.91036126,23.6794028 L8.91036126,26.3112452 L6.27843419,26.3112452 L6.27843419,23.6794028 Z" id="Shape"></path>
                <path d="M12.7733223,27.8727632 L18.5282006,27.8727632 L18.5282006,22.1178848 L12.7733223,22.1178848 L12.7733223,27.8727632 Z M14.3348403,23.6794028 L16.9666826,23.6794028 L16.9666826,26.3112452 L14.3348403,26.3112452 L14.3348403,23.6794028 Z" id="Shape"></path>
                <path d="M20.8296437,27.8727632 L26.5846067,27.8727632 L26.5846067,22.1178848 L20.8296437,22.1178848 L20.8296437,27.8727632 Z M22.3911617,23.6794028 L25.0230887,23.6794028 L25.0230887,26.3112452 L22.3911617,26.3112452 L22.3911617,23.6794028 Z" id="Shape"></path>
                <path d="M28.8860498,27.8727632 L34.6409281,27.8727632 L34.6409281,22.1178848 L28.8860498,22.1178848 L28.8860498,27.8727632 Z M30.4475678,23.6794028 L33.0794101,23.6794028 L33.0794101,26.3112452 L30.4475678,26.3112452 L30.4475678,23.6794028 Z" id="Shape"></path>
                <path d="M4.71691619,34.9228068 L10.4718793,34.9228068 L10.4718793,29.1678438 L4.71691619,29.1678438 L4.71691619,34.9228068 Z M6.27843419,30.7293618 L8.91036126,30.7293618 L8.91036126,33.3612888 L6.27843419,33.3612888 L6.27843419,30.7293618 Z" id="Shape"></path>
                <path d="M12.7733223,34.9228068 L18.5282006,34.9228068 L18.5282006,29.1678438 L12.7733223,29.1678438 L12.7733223,34.9228068 Z M14.3348403,30.7293618 L16.9666826,30.7293618 L16.9666826,33.3612888 L14.3348403,33.3612888 L14.3348403,30.7293618 Z" id="Shape"></path>
                <path d="M20.8296437,34.9228068 L26.5846067,34.9228068 L26.5846067,29.1678438 L20.8296437,29.1678438 L20.8296437,34.9228068 Z M22.3911617,30.7293618 L25.0230887,30.7293618 L25.0230887,33.3612888 L22.3911617,33.3612888 L22.3911617,30.7293618 Z" id="Shape"></path>
                <path d="M28.8860498,34.9228068 L34.6409281,34.9228068 L34.6409281,29.1678438 L28.8860498,29.1678438 L28.8860498,34.9228068 Z M30.4475678,30.7293618 L33.0794101,30.7293618 L33.0794101,33.3612888 L30.4475678,33.3612888 L30.4475678,30.7293618 Z" id="Shape"></path>
            </g>
        </g>
    </g>
</svg>