<?xml version="1.0" encoding="UTF-8"?>
<svg width="29px" height="30px" viewBox="0 0 29 30" version="1.1" xmlns="http://www.w3.org/2000/svg" xmlns:xlink="http://www.w3.org/1999/xlink">
    <!-- Generator: Sketch 57.1 (83088) - https://sketch.com -->
    <title>icon_calendar</title>
    <desc>Created with Sketch.</desc>
    <g id="Page-1" stroke="none" stroke-width="1" fill="none" fill-rule="evenodd">
        <g id="bj_uc01-copy-2" transform="translate(-49.000000, -465.000000)" fill="#EFC708" fill-rule="nonzero">
            <g id="card" transform="translate(13.000000, 430.000000)">
                <g id="calendar" transform="translate(16.000000, 16.000000)">
                    <g id="icon_calendar" transform="translate(20.000000, 19.000000)">
                        <path d="M25.9695352,0.688278074 L23.078918,0.688278074 L23.078918,3.14952319 C23.078918,3.71424682 22.6195225,4.17370385 22.0547988,4.17370385 C21.4900752,4.17370385 21.0306182,3.71424682 21.0306182,3.14952319 L21.0306182,0.688278074 L7.57138184,0.688278074 L7.57138184,3.14952319 C7.57138184,3.71424682 7.1119248,4.17370385 6.54720118,4.17370385 C5.98247755,4.17370385 5.52308203,3.71424682 5.52308203,3.14952319 L5.52308203,0.688278074 L2.63246484,0.688278074 C1.2056748,0.688278074 0.0449121078,1.84904077 0.0449121078,3.27580004 L0.0449121078,26.6129011 C0.0449121078,28.0396296 1.2056748,29.2003923 2.63246484,29.2003923 L25.9695352,29.2003923 C27.3963252,29.2003923 28.5570879,28.0396296 28.5570879,26.6129011 L28.5570879,3.27580005 C28.5570879,1.84904077 27.3963252,0.688278074 25.9695352,0.688278074 Z M2.63246484,1.82227807 L4.38908203,1.82227807 L4.38908203,3.14952319 C4.38908203,4.33954028 5.35721484,5.30770385 6.54720117,5.30770385 C7.73724902,5.30770385 8.70538183,4.33954028 8.70538183,3.14952319 L8.70538183,1.82227807 L19.8966182,1.82227807 L19.8966182,3.14952319 C19.8966182,4.33954028 20.864751,5.30770385 22.0547988,5.30770385 C23.2447852,5.30770385 24.212918,4.33954028 24.212918,3.14952319 L24.212918,1.82227807 L25.9695352,1.82227807 C26.771001,1.82227807 27.4230879,2.47433423 27.4230879,3.27580004 L27.4230879,8.31576928 L1.17891211,8.31576928 L1.17891211,3.27580005 C1.17891211,2.47433423 1.83099903,1.82227807 2.63246484,1.82227807 Z M25.9695352,28.0663923 L2.63246484,28.0663923 C1.83099902,28.0663923 1.17891211,27.4143669 1.17891211,26.6129011 L1.17891211,9.44976929 L27.4230879,9.44976929 L27.4230879,26.6129011 C27.4230879,27.4143669 26.771001,28.0663923 25.9695352,28.0663923 Z" id="Shape"></path>
                        <path d="M3.42550195,15.7279285 L7.60485059,15.7279285 L7.60485059,11.5486106 L3.42550195,11.5486106 L3.42550195,15.7279285 Z M4.55950195,12.6826106 L6.47085059,12.6826106 L6.47085059,14.5939285 L4.55950195,14.5939285 L4.55950195,12.6826106 Z" id="Shape"></path>
                        <path d="M9.27619629,15.7279285 L13.4554834,15.7279285 L13.4554834,11.5486106 L9.27619629,11.5486106 L9.27619629,15.7279285 Z M10.4101963,12.6826106 L12.3214834,12.6826106 L12.3214834,14.5939285 L10.4101963,14.5939285 L10.4101963,12.6826106 Z" id="Shape"></path>
                        <path d="M15.1268291,15.7279285 L19.3061777,15.7279285 L19.3061777,11.5486106 L15.1268291,11.5486106 L15.1268291,15.7279285 Z M16.2608291,12.6826106 L18.1721777,12.6826106 L18.1721777,14.5939285 L16.2608291,14.5939285 L16.2608291,12.6826106 Z" id="Shape"></path>
                        <path d="M20.9775234,15.7279285 L25.1568105,15.7279285 L25.1568105,11.5486106 L20.9775234,11.5486106 L20.9775234,15.7279285 Z M22.1115234,12.6826106 L24.0228105,12.6826106 L24.0228105,14.5939285 L22.1115234,14.5939285 L22.1115234,12.6826106 Z" id="Shape"></path>
                        <path d="M3.42550195,20.7972136 L7.60485059,20.7972136 L7.60485059,16.6179265 L3.42550195,16.6179265 L3.42550195,20.7972136 Z M4.55950195,17.7519265 L6.47085059,17.7519265 L6.47085059,19.6632136 L4.55950195,19.6632136 L4.55950195,17.7519265 Z" id="Shape"></path>
                        <path d="M9.27619629,20.7972136 L13.4554834,20.7972136 L13.4554834,16.6179265 L9.27619629,16.6179265 L9.27619629,20.7972136 Z M10.4101963,17.7519265 L12.3214834,17.7519265 L12.3214834,19.6632136 L10.4101963,19.6632136 L10.4101963,17.7519265 Z" id="Shape"></path>
                        <path d="M15.1268291,20.7972136 L19.3061777,20.7972136 L19.3061777,16.6179265 L15.1268291,16.6179265 L15.1268291,20.7972136 Z M16.2608291,17.7519265 L18.1721777,17.7519265 L18.1721777,19.6632136 L16.2608291,19.6632136 L16.2608291,17.7519265 Z" id="Shape"></path>
                        <path d="M20.9775234,20.7972136 L25.1568105,20.7972136 L25.1568105,16.6179265 L20.9775234,16.6179265 L20.9775234,20.7972136 Z M22.1115234,17.7519265 L24.0228105,17.7519265 L24.0228105,19.6632136 L22.1115234,19.6632136 L22.1115234,17.7519265 Z" id="Shape"></path>
                        <path d="M3.42550195,25.917071 L7.60485059,25.917071 L7.60485059,21.7377224 L3.42550195,21.7377224 L3.42550195,25.917071 Z M4.55950195,22.8717224 L6.47085059,22.8717224 L6.47085059,24.783071 L4.55950195,24.783071 L4.55950195,22.8717224 Z" id="Shape"></path>
                        <path d="M9.27619629,25.917071 L13.4554834,25.917071 L13.4554834,21.7377224 L9.27619629,21.7377224 L9.27619629,25.917071 Z M10.4101963,22.8717224 L12.3214834,22.8717224 L12.3214834,24.783071 L10.4101963,24.783071 L10.4101963,22.8717224 Z" id="Shape"></path>
                        <path d="M15.1268291,25.917071 L19.3061777,25.917071 L19.3061777,21.7377224 L15.1268291,21.7377224 L15.1268291,25.917071 Z M16.2608291,22.8717224 L18.1721777,22.8717224 L18.1721777,24.783071 L16.2608291,24.783071 L16.2608291,22.8717224 Z" id="Shape"></path>
                        <path d="M20.9775234,25.917071 L25.1568105,25.917071 L25.1568105,21.7377224 L20.9775234,21.7377224 L20.9775234,25.917071 Z M22.1115234,22.8717224 L24.0228105,22.8717224 L24.0228105,24.783071 L22.1115234,24.783071 L22.1115234,22.8717224 Z" id="Shape"></path>
                    </g>
                </g>
            </g>
        </g>
    </g>
</svg>