<?xml version="1.0" encoding="UTF-8"?>
<svg width="31px" height="38px" viewBox="0 0 31 38" version="1.1" xmlns="http://www.w3.org/2000/svg" xmlns:xlink="http://www.w3.org/1999/xlink">
    <!-- Generator: Sketch 57.1 (83088) - https://sketch.com -->
    <title>icn_chatt</title>
    <desc>Created with Sketch.</desc>
    <g id="Page-1" stroke="none" stroke-width="1" fill="none" fill-rule="evenodd">
        <g id="bj_tools" transform="translate(-172.000000, -127.000000)" fill="#FF8B8C" fill-rule="nonzero">
            <g id="icn_chatt" transform="translate(172.000000, 127.000000)">
                <path d="M27.2955884,0.197794119 L16.8520589,0.197794119 C14.9532354,0.197794119 13.3708824,1.74058824 13.3708824,3.67897061 L13.3708824,12.342353 C13.3708824,14.2411765 14.9136766,15.8235295 16.8520589,15.8235295 L17.0102942,15.8235295 L17.0102942,18.3552942 C17.0102942,19.1069119 17.4454413,19.7398531 18.1575001,19.977206 C18.3552942,20.0563236 18.5530883,20.0958825 18.7904413,20.0958825 C19.2651472,20.0958825 19.7398531,19.8980883 20.0958825,19.5025001 L23.339706,15.8235295 L27.2955884,15.8235295 C29.1944119,15.8235295 30.7767649,14.2807354 30.7767649,12.342353 L30.7767649,3.67897061 C30.7372061,1.74058824 29.1944119,0.197794119 27.2955884,0.197794119 Z M28.9175002,12.3027942 C28.9175002,13.2126471 28.1658825,13.9642648 27.2560296,13.9642648 L22.8650001,13.9642648 C22.5880884,13.9642648 22.3507354,14.0829413 22.1925001,14.2807354 L18.8300001,18.1179413 L18.8300001,14.8741177 C18.8300001,14.359853 18.4344119,13.9642648 17.9201472,13.9642648 L16.8520589,13.9642648 C15.942206,13.9642648 15.1905883,13.2126471 15.1905883,12.3027942 L15.1905883,3.67897061 C15.1905883,2.76911766 15.942206,2.01750001 16.8520589,2.01750001 L27.2955884,2.01750001 C28.2054413,2.01750001 28.957059,2.76911766 28.957059,3.67897061 L28.957059,12.3027942 L28.9175002,12.3027942 Z" id="Shape"></path>
                <path d="M18.1575001,32.3591178 C17.8014707,29.4317649 15.6257354,27.0977943 12.8566177,26.4648531 C14.359853,25.357206 15.3092648,23.577059 15.3092648,21.5991178 C15.3092648,18.2366177 12.579706,15.5070589 9.21720593,15.5070589 C5.85470592,15.5070589 3.12514708,18.2366177 3.12514708,21.5991178 C3.12514708,23.577059 4.11411767,25.357206 5.57779415,26.4648531 C2.80867649,27.0977943 0.63294118,29.392206 0.276911766,32.3591178 L0.0395588238,35.2073531 C1.90125693e-15,35.8798531 0.197794119,36.5127943 0.672500004,36.9875002 C1.10764707,37.4622061 1.74058825,37.7391179 2.41308825,37.7391179 L15.9817648,37.7391179 C16.6542648,37.7391179 17.287206,37.4622061 17.722353,36.9875002 C18.1575001,36.5127943 18.394853,35.8402943 18.3552942,35.2073531 L18.1575001,32.3591178 C18.1575001,32.3986767 18.1575001,32.3591178 18.1575001,32.3591178 Z M4.98441179,21.5991178 C4.98441179,19.2651472 6.88323533,17.3267648 9.25676476,17.3267648 C11.5907354,17.3267648 13.5291177,19.2255883 13.5291177,21.5991178 C13.5291177,23.9330884 11.6302942,25.8714707 9.25676476,25.8714707 C6.92279416,25.8714707 4.98441179,23.9726472 4.98441179,21.5991178 Z M16.4169119,35.8007355 C16.377353,35.8798531 16.2191177,35.9589708 16.0213236,35.9589708 L2.45264707,35.9589708 C2.25485295,35.9589708 2.13617648,35.8402943 2.05705883,35.8007355 C2.01750001,35.7216178 1.89882354,35.6029414 1.89882354,35.4051473 L2.09661766,32.5964708 C2.41308825,30.064706 4.54926473,28.1263237 7.12058827,28.1263237 L11.3138236,28.1263237 C13.8851471,28.1263237 16.0213236,30.0251472 16.3377942,32.5569119 L16.5751472,35.3655884 C16.5751472,35.5633826 16.4960295,35.7216178 16.4169119,35.8007355 Z" id="Shape"></path>
                <path d="M25.9110296,6.48764709 L23.9330884,6.3294118 C23.6957354,6.3294118 23.4979413,6.17117651 23.4188237,5.93382356 L22.667206,4.07455885 C22.4694119,3.56029414 21.7177942,3.56029414 21.5200001,4.07455885 L20.7683825,5.93382356 C20.6892648,6.13161768 20.4914707,6.28985298 20.2541178,6.3294118 L18.2761766,6.48764709 C17.722353,6.52720592 17.4850001,7.23926475 17.9201472,7.59529416 L19.4233825,8.90073534 C19.6211766,9.05897064 19.6607354,9.29632358 19.6211766,9.53367652 L19.067353,11.4720589 C18.9486766,12.0258824 19.5420589,12.4610295 20.0167648,12.1445589 L21.7177942,11.1160295 C21.9155884,10.997353 22.1529413,10.997353 22.3902942,11.1160295 L24.0913237,12.1445589 C24.5660295,12.4214707 25.1594119,11.9863236 25.0407354,11.4720589 L24.5660295,9.53367652 C24.5264707,9.29632358 24.6055884,9.05897064 24.7638237,8.90073534 L26.267059,7.59529416 C26.702206,7.23926475 26.5044119,6.56676474 25.9110296,6.48764709 Z" id="Path"></path>
            </g>
        </g>
    </g>
</svg>