<?xml version="1.0" encoding="UTF-8"?>
<svg width="28px" height="38px" viewBox="0 0 28 38" version="1.1" xmlns="http://www.w3.org/2000/svg" xmlns:xlink="http://www.w3.org/1999/xlink">
    <!-- Generator: Sketch 57.1 (83088) - https://sketch.com -->
    <title>icn_checklista</title>
    <desc>Created with Sketch.</desc>
    <g id="Page-1" stroke="none" stroke-width="1" fill="none" fill-rule="evenodd">
        <g id="bj_tools" transform="translate(-174.000000, -369.000000)" fill="#FF8B8C" fill-rule="nonzero">
            <g id="icn_checklista" transform="translate(174.000000, 369.000000)">
                <path d="M18.37464,18.26176 L12.0168,24.61952 L9.46984,22.05032 C8.91,21.48552 7.99824,21.48152 7.43344,22.04144 C6.86864,22.60136 6.86464,23.51312 7.42456,24.07784 L10.98968,27.67424 C11.25928,27.94624 11.62616,28.0996 12.0092,28.10048 C12.01024,28.10048 12.01128,28.10048 12.01232,28.10048 C12.39416,28.10048 12.76048,27.9488 13.03056,27.67872 L20.41104,20.29824 C20.97344,19.73592 20.97344,18.82416 20.41104,18.26184 C19.84864,17.69944 18.93696,17.69944 18.37464,18.26176 Z" id="Path"></path>
                <path d="M20.2876,3.80448 C19.89288,1.64352 17.9976,0 15.72448,0 L12.1156,0 C9.8424,0 7.9472,1.64352 7.5524,3.80448 L2.99026872,3.80448 C0.872828725,3.80448 0.00992,4.93507668 0.00992,7.05251668 L0.00992,34.0945012 C0.00992,36.2118612 1.02446326,37.12 3.14190326,37.12 L24.6137552,37.12 C26.7311952,37.12 27.83024,36.5331266 27.83024,34.4157666 L27.83024,7.05622479 C27.83024,4.93878479 26.9077338,3.80448 24.7902938,3.80448 L20.2876,3.80448 Z M7.23064,5.7 L20.60936,5.7 L20.60936,8 L7.23064,8 L7.23064,5.7 Z M11.5783518,1.80448 L16.4216482,1.80448 C17.3185668,1.80448 18.1001766,2.61444885 18.5,3.80448 L9.5,3.80448 C9.89993081,2.61444885 10.6815406,1.80448 11.5783518,1.80448 Z M25.95016,6.71222326 L25.95016,34.1567367 C25.95016,34.7234515 25.480478,35.18448 24.9031259,35.18448 L2.9368741,35.18448 C2.35952204,35.18448 1.88984,34.7234515 1.88984,34.1567367 L1.88984,6.71222326 C1.88984,6.1455085 2.35952204,5.68448 2.9368741,5.68448 L5.66439791,5.68448 L5.66439791,8.11740524 C5.66439791,8.96880488 6.36756856,9.65902013 7.23494906,9.65902013 L20.6050509,9.65902013 C21.4724314,9.65902013 22.1756021,8.96880488 22.1756021,8.11740524 L22.1756021,5.68448 L24.9031259,5.68448 C25.480478,5.68448 25.95016,6.14542285 25.95016,6.71222326 Z" id="Shape"></path>
            </g>
        </g>
    </g>
</svg>