<?xml version="1.0" encoding="UTF-8"?>
<svg width="90px" height="92px" viewBox="0 0 90 92" version="1.1" xmlns="http://www.w3.org/2000/svg" xmlns:xlink="http://www.w3.org/1999/xlink">
    <!-- Generator: Sketch 57.1 (83088) - https://sketch.com -->
    <title>Group</title>
    <desc>Created with Sketch.</desc>
    <g id="Page-1" stroke="none" stroke-width="1" fill="none" fill-rule="evenodd">
        <g id="bj_uc01-copy-4" transform="translate(-144.000000, -301.000000)" fill-rule="nonzero">
            <g id="Group" transform="translate(144.000000, 301.000000)">
                <path d="M34.520222,37 C34.7146618,37.000698 34.9074053,36.9639061 35.0878437,36.8916392 C40.3014394,34.831549 43.7185842,29.7973451 43.700087,24.2039156 L43.700087,23.1356685 C43.6777774,18.4420014 46.7688135,14.2988037 51.2826554,12.9720603 L57.9089879,10.9881728 C58.4326386,10.8316971 58.8328192,10.4084573 58.9587855,9.87788361 C59.0847518,9.34730992 58.9173665,8.79000916 58.519682,8.41591112 C58.1219975,8.04181309 57.5544316,7.90775218 57.0307808,8.06422784 L50.4044483,10.0481153 C44.5912952,11.7583811 40.6111246,17.0950493 40.640132,23.1402467 L40.640132,24.2084938 C40.6543264,28.5518428 38.0009287,32.4609151 33.9526004,34.0607843 C33.276909,34.3355112 32.8897482,35.0479413 33.0277656,35.7626102 C33.165783,36.477279 33.7905655,36.9952795 34.520222,37 Z" id="Path" fill="#FFCBCB"></path>
                <path d="M27.4577683,23.5212183 L29.1200009,29.8964973 C29.2921422,30.5506126 29.8389265,31.0007682 30.4603762,31 C30.5898943,30.999584 30.7187722,30.980076 30.8435396,30.9420003 C31.1990839,30.8311789 31.4998537,30.5701298 31.6796414,30.2163172 C31.859429,29.8625046 31.903497,29.4449311 31.8021448,29.055516 L30.1399122,22.6787107 C29.5099391,20.275596 29.7277748,17.700863 30.7501871,15.465503 C32.4166043,11.7907472 32.4166043,7.4733609 30.7501871,3.7986051 L30.321044,2.84467899 C30.0985338,2.35664627 29.6552446,2.03572116 29.1581593,2.00279305 C28.661074,1.96986494 28.1857116,2.22993639 27.9111365,2.685041 C27.6365615,3.14014562 27.6044882,3.72114218 27.8269985,4.2091749 L28.2631081,5.16310102 C29.5407084,7.97804834 29.5407084,11.2860598 28.2631081,14.1010071 C26.9259742,17.0194135 26.6385387,20.3816006 27.4577683,23.5212183 L27.4577683,23.5212183 Z" id="Path" fill="#FFCBCB"></path>
                <path d="M75.8932942,26.1071305 C76.2034691,25.3139511 75.8144323,24.4185181 75.0243561,24.1071249 C74.2342799,23.7957317 73.3423502,24.1862965 73.0321753,24.979476 L70.4983486,31.4739024 C68.7878551,35.8939557 64.3811262,38.6542687 59.6746524,38.2537134 L58.5990438,38.1626989 C52.9874981,37.6806998 47.6548594,40.6993988 45.1616186,45.7693537 C44.7831559,46.5318643 45.0920398,47.4580117 45.8515448,47.8380059 C46.0637208,47.9449295 46.297918,48.0004065 46.5353245,48 C47.1208383,48.002897 47.6571148,47.6714925 47.9182499,47.1453699 C49.8628678,43.215001 54.0001271,40.8744101 58.3562636,41.240224 L59.4318722,41.3312385 C65.4920676,41.8511097 71.1679931,38.2971047 73.3686871,32.6046422 L75.8932942,26.1071305 Z" id="Path" fill="#FFCBCB"></path>
                <path d="M76.7043907,56.1660204 L77.6267892,56.7440504 C78.0964684,57.0592271 78.6943973,57.0851392 79.1878521,56.8117014 C79.6813068,56.5382636 79.9923277,56.0086755 80,55.4290618 C80.0073925,54.8494482 79.7102464,54.3113806 79.2240761,54.0242841 L78.3016775,53.4446618 C74.764991,51.2296616 70.4301949,50.8606539 66.5918278,52.4478388 C64.2554104,53.42088 61.6513455,53.4492965 59.2956551,52.5274573 L53.0448676,50.0895403 C52.2570126,49.8043601 51.39339,50.2223563 51.0991158,51.0312904 C50.8048416,51.8402246 51.1874111,52.7446017 51.9610492,53.0688627 L58.2118368,55.5067797 C61.2886144,56.7144001 64.6916305,56.677446 67.7432886,55.4032757 C70.6813627,54.193696 73.9963676,54.4758602 76.7043907,56.1660204 L76.7043907,56.1660204 Z" id="Path" fill="#FFCBCB"></path>
                <path d="M55,24 C55,27.3137085 57.6862915,30 61,30 C64.3137085,30 67,27.3137085 67,24 C67,20.6862915 64.3137085,18 61,18 C57.6862915,18 55,20.6862915 55,24 Z M61,21 C62.6568542,21 64,22.3431458 64,24 C64,25.6568542 62.6568542,27 61,27 C59.3431458,27 58,25.6568542 58,24 C58,22.3431458 59.3431458,21 61,21 Z" id="Shape" fill="#FF8B8C"></path>
                <path d="M74,66 C70.6862915,66 68,68.6862915 68,72 C68,75.3137085 70.6862915,78 74,78 C77.3137085,78 80,75.3137085 80,72 C80,68.6862915 77.3137085,66 74,66 Z M74,75 C72.3431458,75 71,73.6568542 71,72 C71,70.3431458 72.3431458,69 74,69 C75.6568542,69 77,70.3431458 77,72 C77,73.6568542 75.6568542,75 74,75 Z" id="Shape" fill="#FF8B8C"></path>
                <path d="M17,35 C20.3137085,35 23,32.3137085 23,29 C23,25.6862915 20.3137085,23 17,23 C13.6862915,23 11,25.6862915 11,29 C11,32.3137085 13.6862915,35 17,35 Z M17,26 C18.6568542,26 20,27.3431458 20,29 C20,30.6568542 18.6568542,32 17,32 C15.3431458,32 14,30.6568542 14,29 C14,27.3431458 15.3431458,26 17,26 Z" id="Shape" fill="#FF8B8C"></path>
                <path d="M70.8294406,43.1756367 L67.8302348,44.8417171 C67.0889888,45.2530246 66.7882038,46.2540622 67.1584127,47.0775972 C67.5286216,47.9011322 68.4296338,48.2353087 69.1708798,47.8240012 L72.1700856,46.1579207 C72.6495877,45.8918515 72.9649032,45.3617833 72.9972558,44.7673877 C73.0296083,44.1729921 72.7740828,43.6045719 72.3269333,43.2762456 C71.8797837,42.9479193 71.3089427,42.9095674 70.8294406,43.1756367 L70.8294406,43.1756367 Z" id="Path" fill="#FFE87B"></path>
                <path d="M87.8294406,41.1756367 L84.8302348,42.8417171 C84.0889888,43.2530246 83.7882038,44.2540622 84.1584127,45.0775972 C84.5286216,45.9011322 85.4296338,46.2353087 86.1708798,45.8240012 L89.1700856,44.1579207 C89.6495877,43.8918515 89.9649032,43.3617833 89.9972558,42.7673877 C90.0296083,42.1729921 89.7740828,41.6045719 89.3269333,41.2762456 C88.8797837,40.9479193 88.3089427,40.9095674 87.8294406,41.1756367 L87.8294406,41.1756367 Z" id="Path" fill="#FFE87B" transform="translate(87.000000, 43.500000) rotate(138.000000) translate(-87.000000, -43.500000) "></path>
                <path d="M39.5,8 C40.3284271,8 41,7.2836556 41,6.4 L41,1.6 C41,0.7163444 40.3284271,0 39.5,0 C38.6715729,0 38,0.7163444 38,1.6 L38,6.4 C38,7.2836556 38.6715729,8 39.5,8 Z" id="Path" fill="#FFE87B"></path>
                <path d="M63.5,70 L57.5,70 C56.6715729,70 56,70.6715729 56,71.5 C56,72.3284271 56.6715729,73 57.5,73 L63.5,73 C64.3284271,73 65,72.3284271 65,71.5 C65,70.6715729 64.3284271,70 63.5,70 Z" id="Path" fill="#FFE87B"></path>
                <path d="M46.1437688,34.9178348 C47.015779,35.1963525 47.9578824,34.7439089 48.2491104,33.906748 L49.9147287,29.1072854 C50.1027703,28.5643025 49.974936,27.9662096 49.5793798,27.5383025 C49.1838237,27.1103953 48.5806401,26.9176833 47.9970424,27.0327591 C47.4134448,27.1478349 46.9380954,27.5532157 46.7500539,28.0961986 L45.0844356,32.8956612 C44.9454729,33.2987398 44.9790368,33.7383447 45.1777337,34.1176396 C45.3764306,34.4969344 45.7239604,34.7848035 46.1437688,34.9178348 Z" id="Path" fill="#FFE87B"></path>
                <path d="M81.9252268,8.83294973 C81.7590917,8.337692 81.3434812,7.95877477 80.822996,7.82803234 L77.9304276,7.09912412 L76.3337677,4.65926399 C76.0260241,4.24532773 75.5314809,4 75.0047923,4 C74.4781037,4 73.9835606,4.24532773 73.675817,4.65926399 L72.0665601,7.09912412 L69.1755663,7.82193269 C68.6571085,7.95347728 68.2433423,8.33137754 68.0773977,8.82491015 C67.9114531,9.31844275 68.0161199,9.85982913 68.3551917,10.2617928 L70.2541778,12.4942648 L70.0715224,15.3793994 C70.0445458,15.7999482 70.198455,16.2125628 70.4967269,16.5193289 C70.7949989,16.8260951 71.2110454,16.9996673 71.6461378,16.9988566 C71.8433986,16.999558 72.0389905,16.9638481 72.222447,16.8936376 L75.0016431,15.8261988 L77.7792646,16.8936376 C78.2801124,17.0849444 78.8471721,17.0151683 79.2827036,16.708641 C79.7182351,16.4021138 79.9618566,15.9013322 79.9286145,15.3809244 L79.7459591,12.4942648 L81.6449452,10.2617928 C81.9819927,9.86211704 82.0874558,9.32447821 81.9252268,8.83294973 Z M76.91795,11.0303488 C76.6635998,11.3294543 76.5363626,11.7111122 76.5620869,12.0977876 L76.63137,13.1957246 L75.5748031,12.7916228 C75.2042579,12.6513015 74.7927298,12.6513015 74.4221846,12.7916228 L73.3671924,13.1957246 L73.4364754,12.0993125 C73.4617609,11.7124352 73.3339528,11.330754 73.0790377,11.0318737 L72.3578639,10.1840223 L73.4600947,9.91106292 C73.8468659,9.81432069 74.1812132,9.57883445 74.3954162,9.25230069 L75.0032177,8.32667875 L75.6110192,9.25230069 C75.8261494,9.57798993 76.1601134,9.81320626 76.5463407,9.91106292 L77.6485715,10.1840223 L76.91795,11.0303488 Z" id="Shape" fill="#FFD300"></path>
                <path d="M50.5112154,79.1913408 L50.3303561,76.3855539 C50.2976091,75.8803389 50.0113006,75.426922 49.5710948,75.1831377 C49.1308889,74.9393535 48.5976894,74.9389301 48.1571031,75.1820151 L45.7118259,76.533773 L43.0092286,75.8401077 C42.5221335,75.7121251 42.0040037,75.8466188 41.6388147,76.1958335 C41.2713171,76.5420808 41.1049168,77.0536709 41.1976943,77.552038 L41.7182163,80.3133592 L40.2272295,82.6848643 C39.9588662,83.1131393 39.9260647,83.6499059 40.1402539,84.1081442 C40.354443,84.5663825 40.785957,84.8826252 41.284448,84.9466872 L44.051743,85.3038952 L45.8323988,87.4649292 C46.1116877,87.8038233 46.5260656,88 46.9631373,88 C47.0250724,87.9997407 47.0869377,87.9957812 47.1484079,87.9881425 C47.6471274,87.9247087 48.0791418,87.6088612 48.2938504,87.1507047 L49.483405,84.6087477 L52.0742519,83.5712143 C52.5409262,83.3836126 52.8802731,82.9688102 52.9741032,82.4712764 C53.0679334,81.9737427 52.9032569,81.4623559 52.5374282,81.1152243 L50.5112154,79.1913408 Z M47.8600821,82.0756839 C47.5144084,82.21312 47.2336446,82.4781153 47.0748878,82.8167792 L46.6220043,83.7816854 L45.9470901,82.9620339 C45.7093073,82.6726527 45.3713646,82.4851086 45.0016222,82.4373384 L43.9517557,82.3024591 L44.5163898,81.3998049 C44.7154731,81.0821943 44.7874749,80.7002267 44.7178347,80.3311455 L44.520801,79.2832367 L45.5500818,79.5470666 C45.9115193,79.6390864 46.2941384,79.5892862 46.6205339,79.4077407 L47.5498274,78.8934205 L47.6174659,79.9591156 C47.6411712,80.3339137 47.805138,80.6856666 48.076231,80.9432902 L48.8481917,81.6740102 L47.8600821,82.0756839 Z" id="Shape" fill="#FFD300"></path>
                <path d="M4.22486862,55.8768069 C4.69494489,56.0857058 5.23334851,56.0262073 5.6524357,55.7190477 L7.97801259,54.0073613 L10.7794452,54.4317333 C11.2844097,54.5089266 11.7916522,54.3078236 12.1241918,53.8985907 C12.4567314,53.4893578 12.5684344,52.9287684 12.4203269,52.4124166 L11.599886,49.547511 L12.8469561,46.8656059 C13.0718861,46.3817657 13.0475987,45.8099489 12.7825562,45.349385 C12.5175136,44.8888211 12.0484243,44.6032983 11.5387259,44.592297 L8.70447567,44.5307709 L6.68022433,42.446773 C6.31459026,42.0706399 5.79257822,41.9181635 5.29623779,42.0425193 C4.79989735,42.1668751 4.39804891,42.5508204 4.23083547,43.0604559 L3.30299145,45.8874994 L0.793934158,47.2836676 C0.343519899,47.535774 0.0459644321,48.0136075 0.00486936235,48.5507981 C-0.0362257074,49.0879887 0.184826707,49.6101954 0.591061511,49.9355984 L2.84503628,51.7435179 L3.32984224,54.6904583 C3.41690702,55.2216688 3.75444748,55.6690753 4.22486862,55.8768069 Z M5.21238107,48.3879814 C5.54678518,48.2012465 5.80164821,47.8871638 5.92541875,47.5092631 L6.27746246,46.4365011 L7.04718515,47.2252967 C7.31890511,47.5028793 7.6793932,47.6622463 8.05707325,47.671755 L9.13110491,47.6954189 L8.65823264,48.7129652 C8.49223632,49.0717624 8.46027597,49.4835635 8.56873,49.8661844 L8.88049752,50.9547223 L7.81690784,50.7969632 C7.44306008,50.7407717 7.06297314,50.8366129 6.75331816,51.0651537 L5.87171717,51.7135437 L5.68823676,50.5934539 C5.62304512,50.2003985 5.41942779,49.8480753 5.1184033,49.6074594 L4.2636531,48.9212073 L5.21238107,48.3879814 Z" id="Shape" fill="#FFD300"></path>
                <path d="M54.9784465,64.847243 C55.0608282,64.3560284 54.9041449,63.8546204 54.5582142,63.5024425 L28.9978455,37.4507707 C28.6523419,37.0979039 28.1602401,36.9380009 27.6781056,37.021936 C27.195971,37.1058711 26.7838453,37.4231916 26.5728489,37.8729398 L3.14527232,87.8071017 C2.87247604,88.3935139 2.99095184,89.0914145 3.44120126,89.5503183 C3.89145068,90.0092221 4.57618969,90.1299751 5.15154286,89.8519354 L26.2776319,79.5540795 L26.2776319,79.5540795 L35.8300101,74.9025435 L35.8300101,74.9025435 L54.1455129,65.9740507 C54.586078,65.7584232 54.8966083,65.3383323 54.9784465,64.847243 Z" id="Path" stroke="#FF8B8C" stroke-width="3.5"></path>
                <path d="M48.2157433,69.1554353 L44.6119947,51.2107444 C44.4216968,50.2631655 43.4992655,49.649268 42.5516866,49.8395658 C41.6041078,50.0298636 40.9902102,50.952295 41.180508,51.8998739 L44.7842567,69.8445647 C44.9745545,70.7921436 45.8969859,71.4060412 46.8445647,71.2157433 C47.7921436,71.0254455 48.4060412,70.1030141 48.2157433,69.1554353 Z" id="Path-4" fill="#FF8B8C"></path>
                <path d="M41.2196404,72.1754436 L35.5933236,42.3647795 C35.414076,41.4150483 34.4988579,40.7904479 33.5491268,40.9696955 C32.5993956,41.148943 31.9747952,42.0641611 32.1540427,43.0138923 L37.7803596,72.8245564 C37.9596071,73.7742876 38.8748252,74.398888 39.8245564,74.2196404 C40.7742876,74.0403929 41.398888,73.1251748 41.2196404,72.1754436 Z" id="Path-4" fill="#FF8B8C"></path>
                <path d="M34.3315793,75.4225826 L27.7128357,39.8041394 C27.5362603,38.8539078 26.6228028,38.2267355 25.6725712,38.4033108 C24.7223395,38.5798862 24.0951672,39.4933437 24.2717426,40.4435754 L30.8904862,76.0620185 C31.0670616,77.0122502 31.9805191,77.6394225 32.9307508,77.4628471 C33.8809824,77.2862718 34.5081547,76.3728142 34.3315793,75.4225826 Z" id="Path-4" fill="#FF8B8C"></path>
                <path d="M27.2216349,79.1861954 L22.2580169,51.9541597 C22.0847074,51.003327 21.1734101,50.3730199 20.2225774,50.5463294 C19.2717447,50.7196389 18.6414377,51.6309362 18.8147471,52.5817689 L23.7783651,79.8138046 C23.9516746,80.7646373 24.8629719,81.3949444 25.8138046,81.2216349 C26.7646373,81.0483254 27.3949444,80.1370281 27.2216349,79.1861954 Z" id="Path-4" fill="#FF8B8C"></path>
                <path d="M19.6670618,82.534249 L16.2862783,63.9861621 C16.1129688,63.0353294 15.2016715,62.4050223 14.2508388,62.5783318 C13.3000062,62.7516413 12.6696991,63.6629386 12.8430085,64.6137712 L16.2237921,83.1618582 C16.3971016,84.1126909 17.3083989,84.742998 18.2592315,84.5696885 C19.2100642,84.396379 19.8403713,83.4850817 19.6670618,82.534249 Z" id="Path-4" fill="#FF8B8C"></path>
                <path d="M12.1024184,86.2342823 L10.4613812,77.2310141 C10.2880717,76.2801815 9.37677442,75.6498744 8.42594172,75.8231839 C7.47510903,75.9964933 6.84480194,76.9077906 7.01811143,77.8586233 L8.65914864,86.8618915 C8.83245813,87.8127242 9.74375542,88.4430313 10.6945881,88.2697218 C11.6454208,88.0964123 12.2757279,87.185115 12.1024184,86.2342823 Z" id="Path-4" fill="#FF8B8C"></path>
            </g>
        </g>
    </g>
</svg>