<?xml version="1.0" encoding="UTF-8"?>
<svg width="34px" height="39px" viewBox="0 0 34 39" version="1.1" xmlns="http://www.w3.org/2000/svg" xmlns:xlink="http://www.w3.org/1999/xlink">
    <!-- Generator: Sketch 57.1 (83088) - https://sketch.com -->
    <title>icn_varktimer</title>
    <desc>Created with Sketch.</desc>
    <g id="Page-1" stroke="none" stroke-width="1" fill="none" fill-rule="evenodd">
        <g id="bj_tools" transform="translate(-49.000000, -368.000000)" fill="#FF8B8C" fill-rule="nonzero">
            <g id="icn_varktimer" transform="translate(49.000000, 368.000000)">
                <path d="M16.5817232,0.931195036 C16.6456662,0.931195036 16.7073797,0.936340646 16.7666305,0.946244365 L16.7666305,0.946244365 L20.649541,0.9496652 L20.7816094,0.955605476 C21.1296979,0.992004189 21.4410045,1.19053043 21.6187747,1.49511273 C21.8187662,1.83776783 21.8187662,2.26156257 21.6187747,2.60421767 C21.4187832,2.94687276 21.0497848,3.15530064 20.6530763,3.1496902 L20.6530763,3.1496902 L17.699541,3.1496652 L17.699541,6.39832101 L17.9288256,6.41738547 L18.3438333,6.4573387 C21.5164936,6.80455173 24.4758072,8.08994861 26.8872451,10.1321388 L26.8872451,10.1321388 L27.0628609,10.2808637 L29.3612411,7.98248347 L28.2304605,6.84858411 L28.1401871,6.7495398 C27.8897747,6.43927992 27.824228,6.01685315 27.9758236,5.64359832 C28.1442632,5.22887074 28.5471907,4.95755131 28.9948187,4.95743719 C29.2917514,4.95745229 29.5761357,5.07755782 29.7832402,5.29044777 L29.7832402,5.29044777 L31.5364733,7.0437144 L31.6327647,7.11925735 C31.7211051,7.19375312 31.7869416,7.26620758 31.8424194,7.34652318 L31.8424194,7.34652318 L33.6064985,9.113672 L33.6966334,9.21135934 C33.9194363,9.4835844 34.0005813,9.84509345 33.9111771,10.1874066 C33.8105975,10.572509 33.5098538,10.8732527 33.1247514,10.9738323 C32.7396491,11.074412 32.330252,10.9591405 32.0542039,10.6724045 L32.0542039,10.6724045 L31.0935126,9.71428223 L30.9167362,9.53799208 L28.6183573,11.8363711 L28.7670797,12.0119867 L29.0229901,12.3218532 C31.2890572,15.1358511 32.5495545,18.6242004 32.5495545,22.2996922 C32.5495545,31.092681 25.3925433,38.2496922 16.5995545,38.2496922 C7.80656569,38.2496922 0.6495545,31.092681 0.6495545,22.2996922 C0.6495545,14.0067927 7.04737301,7.10147056 15.2702721,6.41768228 L15.2702721,6.41768228 L15.4995545,6.39861594 L15.4995545,3.1499622 L12.5495545,3.1499622 L12.4174861,3.14402192 C12.0693976,3.10762321 11.758091,2.90909697 11.5803208,2.60451467 C11.3803293,2.26185957 11.3803293,1.83806483 11.5803208,1.49540973 C11.7803123,1.15275464 12.1493107,0.944326757 12.5460192,0.949937202 L12.5460192,0.949937202 L16.3832845,0.9499622 L16.4637728,0.940089683 C16.5107377,0.93487518 16.5462279,0.93223345 16.5817232,0.931195036 Z M16.7713295,8.55784691 C16.6495081,8.57046121 16.5600528,8.57046187 16.471581,8.55967138 L16.471581,8.55967138 L16.4384266,8.55784691 C8.89607275,8.64497137 2.8495545,14.7524843 2.8495545,22.2999865 C2.8495545,29.9099027 8.98963831,36.0499865 16.5995545,36.0499865 C24.2094707,36.0499865 30.3495545,29.9099027 30.3495545,22.2999865 C30.3495545,18.6923256 28.958221,15.3117138 26.5091582,12.7662926 C26.3464695,12.6512952 26.2427964,12.5483511 26.1620159,12.4282907 C23.6274751,9.98384306 20.3156616,8.60150376 16.7713295,8.55784691 Z M16.578427,14.1811 C16.943323,14.1754096 17.2949811,14.3176777 17.5532744,14.5754878 C17.8115677,14.8332979 17.9544941,15.184689 17.949487,15.549595 L17.949487,15.549595 L17.949487,19.95559 C18.7841157,20.4391492 19.2986162,21.3324763 19.2994872,22.299595 C19.2997725,23.0183729 19.0154351,23.7078096 18.5090559,24.2161637 C18.0026767,24.7245177 17.315758,25.010125 16.599487,25.010125 C15.883216,25.010125 15.1962973,24.7245177 14.6899181,24.2161637 C14.1835389,23.7078096 13.8992015,23.0183729 13.8994868,22.299595 C13.9012692,21.333393 14.4156476,20.4412552 15.249487,19.958155 L15.249487,19.958155 L15.249487,15.549595 C15.2392698,14.8050097 15.8338355,14.1927347 16.5784,14.1811 Z" id="Combined-Shape"></path>
            </g>
        </g>
    </g>
</svg>