<?xml version="1.0" encoding="UTF-8"?>
<svg width="12px" height="7px" viewBox="0 0 12 7" version="1.1" xmlns="http://www.w3.org/2000/svg" xmlns:xlink="http://www.w3.org/1999/xlink">
    <!-- Generator: Sketch 57.1 (83088) - https://sketch.com -->
    <title>icon_dark_arrow</title>
    <desc>Created with Sketch.</desc>
    <g id="Page-1" stroke="none" stroke-width="1" fill="none" fill-rule="evenodd">
        <g id="bj_uc01-copy-2" transform="translate(-214.000000, -205.000000)" fill="#4A4152">
            <path d="M221.772274,203.219489 L217.193471,208.005667 C216.93551,208.274914 216.93551,208.724395 217.193471,208.994748 L221.772274,213.77982 C222.053086,214.073393 222.496393,214.073393 222.777204,213.77982 C223.074265,213.469109 223.074265,212.951624 222.777204,212.640359 L218.942323,208.632066 C218.872755,208.559641 218.872755,208.439668 218.942323,208.367243 L222.777204,204.35895 C223.074265,204.048238 223.074265,203.530753 222.777204,203.219489 C222.636544,203.073531 222.455769,203 222.274993,203 C222.09371,203 221.912934,203.073531 221.772274,203.219489 Z" id="icon_dark_arrow" transform="translate(220.000000, 208.500000) rotate(-90.000000) translate(-220.000000, -208.500000) "></path>
        </g>
    </g>
</svg>