<?xml version="1.0" encoding="UTF-8"?>
<svg width="19px" height="25px" viewBox="0 0 19 25" version="1.1" xmlns="http://www.w3.org/2000/svg" xmlns:xlink="http://www.w3.org/1999/xlink">
    <!-- Generator: Sketch 57.1 (83088) - https://sketch.com -->
    <title>icon_diary</title>
    <desc>Created with Sketch.</desc>
    <g id="Page-1" stroke="none" stroke-width="1" fill="none" fill-rule="evenodd">
        <g id="bj_uc01-copy-2" transform="translate(-179.000000, -1543.000000)" fill="currentColor" fill-rule="nonzero">
            <g id="UI-Bars-/-Tab-Bars-/-Base-/-Light-/-5-Text-Icons" transform="translate(-25.000000, 1537.000000)">
                <g id="#3">
                    <g transform="translate(150.000000, 0.000000)">
                        <g id="icon_diary" transform="translate(54.000000, 6.000000)">
                            <path d="M16.7323944,0.85 C17.0952688,0.85 17.3894366,1.14416784 17.3894366,1.50704225 L17.3894366,4.39929577 L17.4929577,4.39929577 C17.8558322,4.39929577 18.15,4.69346361 18.15,5.05633803 C18.15,5.41921252 17.8558321,5.71338179 17.4929577,5.71338179 L2.53533321,5.71338179 C1.82781145,5.71395616 1.15512325,5.40635188 0.692754155,4.87081326 C0.230384883,4.33527444 0.0241900336,3.62491286 0.128821225,2.91986151 C0.34842851,1.7279969 1.3829723,0.859658503 2.59605634,0.85 L16.7323944,0.85 Z M16.0753521,2.16408451 L2.59836048,2.16408451 C2.03576947,2.18187376 1.55505025,2.57515713 1.42866985,3.11094475 C1.37654566,3.46362965 1.49349238,3.82027567 1.74367858,4.07295517 C1.95367803,4.28242535 2.23833323,4.39982599 2.53521127,4.39930134 L16.0753521,4.39930134 L16.0753521,2.16408451 Z" id="Shape"></path>
                            <path d="M16.8359155,5.05633803 C16.8359155,4.69346361 17.1300833,4.39929577 17.4929577,4.39929577 C17.8558322,4.39929577 18.15,4.69346361 18.15,5.05633803 L18.15,23.8169014 C18.15,24.1797758 17.8558322,24.4739437 17.4929577,24.4739437 L2.53521127,24.4739437 C1.19222589,24.4739437 0.103521127,23.3852389 0.103521127,22.0422535 L0.103521127,3.28169014 C0.103521127,2.91881572 0.397688964,2.62464789 0.76056338,2.62464789 C1.1234378,2.62464789 1.41760563,2.91881572 1.41760563,3.28169014 L1.41760563,22.0422535 C1.41760563,22.6594901 1.91797472,23.1598592 2.53521127,23.1598592 L16.8359155,23.1598592 L16.8359155,5.05633803 Z" id="Path"></path>
                            <path d="M10.6949099,10.85 C12.0467845,10.85 13.1475982,11.9352174 13.1500096,13.2729595 C13.1510626,13.9209069 12.8942588,14.5317267 12.427539,14.9920403 L9.35872548,17.9997528 C9.15381863,18.2004656 8.82351664,18.2001468 8.61892914,17.998367 L5.57301042,14.9920305 C4.6089126,14.0469523 4.60874733,12.5053014 5.57368386,11.559386 C6.52078319,10.6252847 8.03870766,10.6218416 8.99535882,11.5121735 C9.44358907,11.089193 10.050429,10.85 10.6949099,10.85 Z M10.6949099,12.15 C10.3582721,12.15 10.049068,12.280368 9.83905727,12.506571 L9.11406008,13.2874668 L8.89530833,13.2886423 L8.16196053,12.5155833 C7.71320715,12.0425297 6.94933913,12.0285151 6.4840533,12.4874086 C6.07042772,12.8928811 6.04123875,13.5291621 6.39664313,13.9684083 L6.48585172,14.0664395 L8.99143651,16.5394629 L11.5150098,14.0661414 C11.7336321,13.8505194 11.8504918,13.5737296 11.8500068,13.2752708 C11.8488917,12.6566804 11.3317055,12.15 10.6949099,12.15 Z" id="Shape"></path>
                        </g>
                    </g>
                </g>
            </g>
        </g>
    </g>
</svg>