<?xml version="1.0" encoding="UTF-8"?>
<svg width="10px" height="10px" viewBox="0 0 10 10" version="1.1" xmlns="http://www.w3.org/2000/svg" xmlns:xlink="http://www.w3.org/1999/xlink">
    <!-- Generator: Sketch 57.1 (83088) - https://sketch.com -->
    <title>icon_exit</title>
    <desc>Created with Sketch.</desc>
    <g id="Page-1" stroke="none" stroke-width="1" fill="none" fill-rule="evenodd">
        <g id="bj_uc02-copy" transform="translate(-16.000000, -66.000000)" fill="#594961">
            <path d="M21,65 C21.5522847,65 22,65.4477153 22,66 L22,69.999 L26,70 C26.5522847,70 27,70.4477153 27,71 C27,71.5522847 26.5522847,72 26,72 L22,71.999 L22,76 C22,76.5522847 21.5522847,77 21,77 C20.4477153,77 20,76.5522847 20,76 L20,71.999 L16,72 C15.4477153,72 15,71.5522847 15,71 C15,70.4477153 15.4477153,70 16,70 L20,69.999 L20,66 C20,65.4477153 20.4477153,65 21,65 Z" id="icon_exit" transform="translate(21.000000, 71.000000) rotate(-315.000000) translate(-21.000000, -71.000000) "></path>
        </g>
    </g>
</svg>