<?xml version="1.0" encoding="UTF-8"?>
<svg width="43px" height="38px" viewBox="0 0 43 38" version="1.1" xmlns="http://www.w3.org/2000/svg" xmlns:xlink="http://www.w3.org/1999/xlink">
    <!-- Generator: Sketch 57.1 (83088) - https://sketch.com -->
    <title>icn_forum</title>
    <desc>Created with Sketch.</desc>
    <g id="Page-1" stroke="none" stroke-width="1" fill="none" fill-rule="evenodd">
        <g id="bj_tools" transform="translate(-45.000000, -128.000000)" fill="#FF8B8C" fill-rule="nonzero">
            <path d="M58.935,128.173846 C57.369708,128.173846 55.989,129.006891 55.23,130.258846 C55.0118943,130.551561 54.9786521,130.942639 55.1442232,131.267967 C55.3097944,131.593295 55.6455319,131.796586 56.0105466,131.79253 C56.3755613,131.788474 56.7066987,131.577773 56.865,131.248846 C57.2865322,130.553538 58.0439064,130.093846 58.935,130.093846 L82.905,130.093846 C84.2632296,130.093846 85.32,131.150619 85.32,132.508846 L85.32,146.878846 C85.32,148.237102 84.2632315,149.293846 82.905,149.293846 L81.48,149.293846 C80.9498286,149.293899 80.520053,149.723675 80.52,150.253846 L80.52,156.568846 L80.13,156.178846 C79.8865099,155.933305 79.5302689,155.836782 79.1961264,155.925815 C78.8619839,156.014847 78.6010008,156.27583 78.5119682,156.609973 C78.4229355,156.944115 78.5194586,157.300356 78.765,157.543846 L80.805,159.568846 C81.0794423,159.840119 81.4896271,159.920721 81.8463111,159.773467 C82.2029951,159.626212 82.4368561,159.279719 82.44,158.893846 L82.44,151.213846 L82.905,151.213846 C85.2908645,151.213846 87.24,149.264734 87.24,146.878846 L87.24,132.508846 C87.24,130.122987 85.2908664,128.173846 82.905,128.173846 L58.935,128.173846 Z M49.335,133.933846 C46.9491437,133.933846 45,135.882992 45,138.268846 L45,152.638846 C45,155.024686 46.9491437,156.973846 49.335,156.973846 L49.8,156.973846 L49.8,164.653846 C49.8031439,165.039719 50.0370049,165.386212 50.3936889,165.533467 C50.7503729,165.680721 51.1605577,165.600119 51.435,165.328846 L59.79,156.973846 L73.305,156.973846 C75.6908563,156.973846 77.64,155.024686 77.64,152.638846 L77.64,138.268846 C77.64,135.882992 75.6908582,133.933846 73.305,133.933846 L49.335,133.933846 Z M49.335,135.853846 L73.305,135.853846 C74.6632378,135.853846 75.72,136.910605 75.72,138.268846 L75.72,152.638846 C75.72,153.997054 74.6632397,155.053846 73.305,155.053846 L59.4,155.053846 C59.1483066,155.051887 58.9059096,155.148846 58.725,155.323846 L51.72,162.328846 L51.72,156.013846 C51.719947,155.483675 51.2901714,155.053899 50.76,155.053846 L49.335,155.053846 C47.9767603,155.053846 46.92,153.997054 46.92,152.638846 L46.92,138.268846 C46.92,136.910605 47.9767603,135.853846 49.335,135.853846 Z M54.6,143.533846 C53.539632,143.533846 52.68,144.393478 52.68,145.453846 C52.68,146.514262 53.539632,147.373846 54.6,147.373846 C55.660368,147.373846 56.52,146.514262 56.52,145.453846 C56.52,144.393478 55.660368,143.533846 54.6,143.533846 Z M61.32,143.533846 C60.259632,143.533846 59.4,144.393478 59.4,145.453846 C59.4,146.514272 60.259632,147.373846 61.32,147.373846 C62.380368,147.373846 63.24,146.514272 63.24,145.453846 C63.24,144.393478 62.380368,143.533846 61.32,143.533846 Z M68.04,143.533846 C66.979632,143.533846 66.12,144.393478 66.12,145.453846 C66.12,146.514262 66.979632,147.373846 68.04,147.373846 C69.100416,147.373846 69.96,146.514262 69.96,145.453846 C69.96,144.393478 69.100416,143.533846 68.04,143.533846 Z" id="icn_forum"></path>
        </g>
    </g>
</svg>