<?xml version="1.0" encoding="UTF-8"?>
<svg width="26px" height="23px" viewBox="0 0 26 23" version="1.1" xmlns="http://www.w3.org/2000/svg" xmlns:xlink="http://www.w3.org/1999/xlink">
    <!-- Generator: Sketch 57.1 (83088) - https://sketch.com -->
    <title>icon_health</title>
    <desc>Created with Sketch.</desc>
    <g id="Page-1" stroke="none" stroke-width="1" fill="none" fill-rule="evenodd">
        <g id="bj_uc01-copy-2" transform="translate(-29.000000, -1148.000000)" fill="#FF7173" fill-rule="nonzero">
            <g id="my_health" transform="translate(13.000000, 1102.000000)">
                <g id="icon_health" transform="translate(16.000000, 46.000000)">
                    <path d="M18.5084499,0 C16.3538531,0 14.3641821,0.880576556 12.9879049,2.37925791 C10.1191713,-0.678052049 5.23151877,-0.827110086 2.20679629,2.18888487 C-0.737494406,5.10685797 -0.732619753,9.85484251 2.20354652,12.7647146 L12.1039677,22.6438601 C12.5800589,23.1185775 13.3494417,23.1177674 13.8247204,22.6471005 L23.7982614,12.7647146 C25.2208478,11.346233 26.0032297,9.46599545 26,7.46910381 C25.9926679,3.34570485 22.6332192,0 18.5084499,0 Z M3.12179603,11.8444876 C0.693450803,9.4378781 0.6930353,5.51939452 3.12189912,3.11224114 C5.60676366,0.634554939 9.65032811,0.722150341 12.0398943,3.26879478 L12.9981654,4.29005793 L13.9454138,3.25856262 C15.0869984,2.01544704 16.7352912,1.3 18.5084499,1.3 C21.9178797,1.3 24.6939481,4.06680975 24.7000185,7.47141543 C24.7026695,9.12067168 24.0587074,10.6691929 22.8803517,11.8441487 L12.9661712,21.6677075 L3.12179603,11.8444876 Z" id="Shape"></path>
                    <path d="M14,6 C14.5522847,6 15,6.44771525 15,7 L15,9 L17,9 C17.5522847,9 18,9.44771525 18,10 L18,12 C18,12.5522847 17.5522847,13 17,13 L15,13 L15,15 C15,15.5522847 14.5522847,16 14,16 L12,16 C11.4477153,16 11,15.5522847 11,15 L11,12.999 L9,13 C8.44771525,13 8,12.5522847 8,12 L8,10 C8,9.44771525 8.44771525,9 9,9 L11,8.999 L11,7 C11,6.44771525 11.4477153,6 12,6 L14,6 Z M12.3,7.3 L12.3,10.2983502 L11.00065,10.2989998 L9.3,10.29985 L9.3,11.6998498 L12.3,11.6983498 L12.3,14.7 L13.7,14.7 L13.7,11.7 L16.7,11.7 L16.7,10.3 L13.7,10.3 L13.7,7.3 L12.3,7.3 Z" id="Combined-Shape"></path>
                </g>
            </g>
        </g>
    </g>
</svg>