<?xml version="1.0" encoding="UTF-8"?>
<svg width="26px" height="24px" viewBox="0 0 26 24" version="1.1" xmlns="http://www.w3.org/2000/svg" xmlns:xlink="http://www.w3.org/1999/xlink">
    <!-- Generator: Sketch 57.1 (83088) - https://sketch.com -->
    <title>icon_home_selected</title>
    <desc>Created with Sketch.</desc>
    <g id="Page-1" stroke="none" stroke-width="1" fill="none" fill-rule="evenodd">
        <g id="bj_uc01-copy-2" transform="translate(-25.000000, -1544.000000)" fill="currentColor" fill-rule="nonzero">
            <g id="UI-Bars-/-Tab-Bars-/-Base-/-Light-/-5-Text-Icons" transform="translate(-25.000000, 1537.000000)">
                <g id="#1">
                    <g>
                        <g id="icon_home_selected" transform="translate(50.000000, 7.000000)">
                            <path d="M15.6963861,23.1400093 L9.68747525,23.1400093 C9.64443208,23.1400093 9.60210702,23.1361978 9.56082072,23.1289041 L4.24410891,23.1274484 C3.2670297,23.122336 2.48183168,22.3396627 2.46920792,21.3651083 C2.46163366,20.8020885 2.46920792,20.2415934 2.46920792,19.6785736 L2.46920792,19.6785736 L2.469,9.799 L1.29267327,10.7283261 C1.1260396,10.862138 0.972029703,10.9429301 0.757425743,10.9505043 C0.555445545,10.9580786 0.366089109,10.8596132 0.222178218,10.7283261 C0.0833168317,10.5995637 9.41469125e-14,10.3799103 9.41469125e-14,10.1930786 C9.41469125e-14,10.0213954 0.0807920792,9.76892015 0.222178218,9.65783104 C0.227227723,9.65025678 0.23480198,9.64520728 0.242376238,9.64015778 C0.711980198,9.24629639 1.20683168,8.88020728 1.68905941,8.49896966 L2.667,7.726 L2.72420792,7.67085084 C2.79742574,7.61025678 2.87253713,7.5509251 2.94796411,7.49190901 L3.17361386,7.31486075 L3.17361386,7.31486075 L5.34742574,5.60055381 C6.01143564,5.0754053 6.67544554,4.55278154 7.33945545,4.02763302 C8.39732673,3.19446471 9.45267327,2.36129639 10.5080198,1.52812807 C11.0584158,1.09134589 11.6113366,0.657088468 12.1617327,0.222831042 C12.3283663,0.0915439137 12.4823762,0.0107518345 12.6969802,0.000652824592 C12.9090594,-0.00944618531 13.0756931,0.0991181711 13.2322277,0.222831042 C13.239802,0.2304053 13.2473762,0.235454805 13.2549505,0.24050431 C13.7523267,0.631840943 14.2471782,1.02317758 14.7420297,1.41451421 C15.6307426,2.1163954 16.5169307,2.81575183 17.4031188,3.51510827 C18.1428713,4.10085084 18.8851485,4.68406867 19.624901,5.26981124 L19.624901,5.26981124 L20.6322772,6.06510827 C21.3190099,6.60793005 22.0082673,7.15327659 22.6975248,7.69609837 L22.61,7.628 L22.618635,7.63340912 L22.624,7.638 L22.6975248,7.69609837 C22.715753,7.71044189 22.7326726,7.72627087 22.7483506,7.74334251 C23.1569304,8.06834872 23.5672523,8.3919877 23.9775743,8.71609837 C24.3764851,9.02916768 24.7728713,9.34476174 25.1717822,9.65783104 C25.3257921,9.77901916 25.3863861,10.0062469 25.3939604,10.1930786 C25.4015347,10.3950588 25.3030693,10.5844152 25.1717822,10.7283261 C25.0430198,10.8671875 24.8233663,10.9505043 24.6365347,10.9505043 C24.4194059,10.9505043 24.265396,10.8570885 24.1012871,10.7283261 C24.0962376,10.7207518 24.0886634,10.7157023 24.0810891,10.7106528 C23.6932393,10.4060587 23.3053895,10.0998314 22.9175396,9.79328447 L22.9171782,21.2843162 C22.9171782,21.3600588 22.9171782,21.4332766 22.9070792,21.5115439 C22.8616337,21.9079301 22.7227723,22.2512964 22.4576733,22.5542667 C22.2430693,22.8016924 21.9224257,22.9935736 21.6017822,23.0718409 C21.3644554,23.1299103 21.134703,23.1274484 20.8948515,23.1274484 L20.8948515,23.1274484 L15.8190031,23.1290376 C15.8109903,23.130467 15.8029533,23.1317611 15.7948953,23.1329172 L15.6963861,23.1400093 Z M4.163,21.62 L4.21128713,21.6403063 L4.21128713,21.6403063 L4.172,21.621 L4.163,21.62 Z M21.222,21.62 L21.212,21.621 L21.175099,21.6403063 L21.175099,21.6403063 L21.222,21.62 Z M21.225,21.615 L21.194,21.617 C21.1579868,21.6268409 21.1288119,21.632732 21.0993564,21.6377815 L21.2003465,21.6238954 L21.2003465,21.6238954 L21.212,21.621 L21.225,21.615 Z M4.16457921,21.6178991 L4.172,21.621 L4.1860396,21.6238954 C4.21949257,21.6283137 4.25294554,21.632732 4.2870297,21.6377815 L4.19950495,21.6199213 L4.19950495,21.6199213 L4.196,21.618 L4.16457921,21.6178991 L4.16457921,21.6178991 Z M12.702,1.73 L12.2492574,2.0833866 L11.7653465,2.46228649 C10.7731188,3.24495976 9.77836634,4.03015778 8.78361386,4.81535579 C7.63232673,5.72426669 6.48356436,6.63065282 5.33227723,7.53956372 L3.988,8.601 L3.99079208,8.79249551 L3.99079208,8.79249551 L3.98405941,9.86486075 L3.98405941,9.86486075 L3.98405941,21.0545637 C3.98405941,21.2085736 3.97648515,21.3651083 3.99415842,21.5165934 L3.986,21.411 L4.00394183,21.4708323 L4.00394183,21.4708323 L4.034,21.523 L4.04962407,21.5350557 C4.05739558,21.5418409 4.06672532,21.5506381 4.07766263,21.5617628 L4.092,21.577 L4.13,21.6 L4.196,21.618 L4.24410891,21.6201083 C4.57990099,21.6213706 4.91632426,21.6213706 5.25274752,21.6210551 L6.26138614,21.6201083 L6.26138614,21.6201083 L8.93,21.62 L8.9300495,14.0433261 C8.9300495,13.8539697 8.92752475,13.6646132 8.9300495,13.4752568 C8.93509901,12.6345142 9.60920792,11.9856528 10.444901,11.9831281 L11.7817574,11.9821813 L13.1186139,11.9831281 L14.9339109,11.9831281 C15.3353465,11.9831281 15.7014356,12.1194647 15.9993564,12.392138 C16.2600371,12.6307271 16.410536,12.9736989 16.445779,13.3229531 L16.4538119,13.472732 L16.453,21.62 L20.7307426,21.6201083 C20.855297,21.6201083 20.9843399,21.6257188 21.1118867,21.6227265 L21.194,21.617 L21.254,21.601 L21.2555755,21.6002258 L21.256,21.6 L21.308,21.569 L21.3197989,21.5545436 C21.3265842,21.5467721 21.3353813,21.5374424 21.346506,21.526505 L21.36,21.513 L21.386,21.47 L21.403,21.408 L21.4048515,21.367633 C21.4073762,21.1101083 21.4073762,20.8519523 21.406745,20.5937964 L21.4048515,19.8199598 L21.4048515,19.8199598 L21.404,8.598 L21.1444864,8.39387683 C20.6474257,8.00159342 20.1500495,7.60899441 19.6526733,7.2163954 C18.5013861,6.30748451 17.3526238,5.40109837 16.2013366,4.49218748 L14.7795854,3.36867263 L14.7795854,3.36867263 L13.3559406,2.24515778 L12.702,1.73 Z M14.941,13.496 L14.6588064,13.4943327 L14.6588064,13.4943327 L14.4466337,13.4979796 L10.8311881,13.4979796 C10.7150495,13.4979796 10.5966667,13.492369 10.47978,13.4946132 L10.452,13.496 L10.4505817,13.9865192 L10.4524752,14.5104053 L10.452,21.62 L14.937,21.62 L14.9389604,21.2742172 L14.9389604,14.3008508 C14.9389604,14.0679424 14.9560025,13.8250928 14.9485466,13.5872138 L14.941,13.496 L14.8732233,13.492369 Z M4.0850495,21.6100093 L4.163,21.62 L4.154,21.616 L4.0850495,21.6100093 L4.0850495,21.6100093 Z M21.3013366,21.6100093 L21.236,21.614 L21.222,21.62 L21.3013366,21.6100093 L21.3013366,21.6100093 Z M4.106,21.592 L4.109,21.596 L4.111,21.598 L4.112,21.599 L4.154,21.616 L4.16457921,21.6178991 L4.16457921,21.6178991 L4.13743812,21.604013 L4.13743812,21.604013 L4.13,21.6 L4.11366337,21.5958893 L4.11366337,21.5958893 L4.106,21.592 Z M21.289,21.589 L21.2727228,21.5958893 L21.2727228,21.5958893 L21.256,21.6 L21.254,21.601 L21.225,21.615 L21.236,21.614 L21.2659901,21.602435 L21.2659901,21.602435 L21.28,21.596 L21.289,21.589 Z M4.067,21.578 L4.068,21.58 L4.111,21.598 L4.109,21.596 L4.104,21.592 L4.067,21.578 Z M21.351,21.566 L21.29,21.588 L21.2867492,21.5928035 L21.283,21.595 L21.351,21.566 Z M4.081,21.57 L4.08599629,21.5746627 L4.104,21.592 L4.106,21.592 L4.092,21.577 L4.081,21.57 Z M21.327,21.562 L21.301,21.58 C21.3007054,21.5863397 21.3062283,21.5839728 21.3147494,21.5761618 L21.327,21.562 Z M21.303,21.576 L21.296,21.583 L21.301,21.58 L21.303,21.576 Z M4.037,21.567 L4.067,21.58 L4.065,21.577 L4.037,21.567 Z M21.315,21.565 L21.308,21.569 L21.3051632,21.5732327 L21.303,21.576 L21.3142409,21.5666209 L21.3142409,21.5666209 L21.315,21.565 Z M21.352,21.565 L21.351,21.566 L21.352,21.566 L21.352,21.565 Z M21.353,21.564 L21.352,21.565 L21.353,21.565 L21.353,21.564 Z M21.352,21.526 L21.3316337,21.5494152 L21.3316337,21.5494152 L21.315,21.565 L21.333,21.555 L21.3341584,21.5544647 L21.3467822,21.5367914 L21.3467822,21.5367914 L21.352,21.526 Z M21.363,21.536 L21.3341584,21.5544647 L21.3341584,21.5544647 L21.333,21.555 L21.329464,21.5604117 L21.327,21.562 L21.3452042,21.550362 L21.3452042,21.550362 L21.362,21.538 L21.363,21.536 Z M4.0212995,21.5159622 C4.01782797,21.5159622 4.02019493,21.5214851 4.02800588,21.5300062 L4.041,21.542 L4.023,21.516 Z M21.383,21.492 L21.381,21.494 L21.377,21.499 L21.363,21.536 L21.365,21.535 L21.383,21.492 Z M21.3736471,21.5307557 L21.365,21.535 L21.365,21.536 L21.3736471,21.5307557 L21.3736471,21.5307557 Z M4.026,21.518 L4.03754675,21.5294977 L4.03754675,21.5294977 L4.034,21.523 L4.03093499,21.52042 L4.026,21.518 Z M21.377,21.497 L21.36,21.513 L21.352,21.525 L21.3594059,21.5181714 L21.377,21.499 L21.377,21.497 Z M4.02,21.511 L4.023,21.516 L4.026,21.518 L4.02,21.511 Z M4.013,21.502 L4.015,21.506 L4.018,21.509 L4.013,21.502 Z M3.989,21.443 L3.99,21.453 L4.00583046,21.4924258 L4.00583046,21.4924258 L4.006,21.494 L4.013,21.502 L4.00827833,21.4879796 L4.00827833,21.4879796 L4.00394183,21.4708323 L4.00394183,21.4708323 L3.989,21.443 Z M21.3887562,21.4667296 L21.386,21.47 L21.3806326,21.4905043 L21.3806326,21.4905043 L21.377,21.497 L21.381,21.494 L21.383,21.492 L21.384,21.491 L21.401,21.448 L21.4026423,21.4433756 L21.402,21.439 L21.3887562,21.4667296 L21.3887562,21.4667296 Z M3.96638614,21.3146132 L3.982,21.427 L3.989,21.441 L3.986,21.411 C3.97732673,21.3732436 3.97143564,21.3440687 3.96638614,21.3146132 Z M21.4225248,21.317138 L21.4046645,21.4046627 L21.4046645,21.4046627 L21.403,21.408 L21.402,21.438 L21.406,21.429 L21.4225248,21.317138 L21.4225248,21.317138 Z M10.436,13.497 L10.431,13.497 L10.3994554,13.5737221 L10.4275433,13.514706 L10.436,13.497 Z M14.954,13.496 L14.9339109,13.4575835 C14.9541089,13.4954548 14.9768317,13.5333261 14.9919802,13.5737221 L14.96,13.497 L14.955,13.497 L14.954,13.496 Z M10.444,13.496 L10.44,13.497 L10.4322772,13.5535241 L10.444,13.496 Z M14.951,13.497 L14.947,13.497 L14.9591584,13.5535241 L14.951,13.497 Z M10.395,13.5 L10.3464356,13.5207023 L10.39,13.506 L10.3905005,13.5059483 L10.395,13.5 Z M14.995,13.5 L15.0009352,13.5059483 L15,13.506 L15.045,13.5207023 L14.995,13.5 Z M14.969,13.498 L14.964,13.498 L14.9847906,13.5161607 C14.9915265,13.5214026 14.9943077,13.5221028 14.9942683,13.5197161 L14.987,13.507 L14.969,13.498 Z M10.425,13.498 L10.423,13.498 L10.422,13.498 L10.4120792,13.5030291 L10.403,13.507 L10.3971674,13.5197161 C10.3971279,13.5221028 10.3999091,13.5214026 10.4066451,13.5161607 L10.425,13.498 Z M10.406,13.501 L10.39,13.506 L10.3887302,13.5130393 L10.403,13.507 L10.4046134,13.50475 L10.406,13.501 Z M14.984,13.501 L14.9868222,13.50475 L14.987,13.507 L15.0027055,13.5130393 L15,13.506 L14.984,13.501 Z M10.366,13.501 L10.322,13.504 L10.395,13.5 L10.395,13.499 L10.396,13.499 L10.404,13.491 L10.3060396,13.5055538 L10.366,13.501 Z M14.985,13.491 L14.993,13.499 L14.995,13.5 L15.085396,13.5055538 L14.985,13.491 Z M10.415,13.498 L10.408,13.498 L10.408,13.499 L10.406,13.501 L10.415,13.498 Z M14.975,13.498 L14.984,13.501 L14.982,13.499 L14.975,13.498 Z M10.413,13.492 L10.396,13.499 L10.4,13.499 L10.408,13.498 L10.413,13.492 Z M14.978,13.492 L14.982,13.499 L14.993,13.499 L14.978,13.492 Z M14.961,13.494 L14.959,13.494 L14.96,13.497 L14.964,13.498 L14.961,13.494 Z M14.9651547,13.4954548 L14.963,13.495 L14.969,13.498 L14.975,13.498 L14.9651547,13.4954548 Z M10.427,13.495 L10.4262809,13.4954548 L10.416,13.498 L10.423,13.498 L10.427,13.495 Z M10.425,13.498 L10.431,13.497 L10.432,13.494 L10.429,13.494 L10.426,13.497 L10.425,13.498 Z M14.951,13.492 L14.951,13.497 L14.955,13.497 L14.954,13.496 L14.954,13.495 L14.953,13.494 L14.952,13.492 L14.951,13.492 Z M10.44,13.492 L10.438,13.492 L10.436,13.497 L10.44,13.497 L10.44,13.496 L10.44,13.492 Z M14.941,13.49 L14.941,13.491 L14.941,13.492 L14.941,13.494 L14.941,13.495 L14.941,13.496 L14.947,13.497 L14.945,13.491 L14.941,13.49 Z M10.452,13.489 L10.445,13.491 L10.444,13.496 L10.448,13.496 L10.452,13.496 L10.452,13.489 Z M10.446,13.486 L10.443,13.486 L10.441,13.487 L10.433,13.492 L10.432,13.494 L10.438,13.492 L10.441,13.488 L10.44,13.492 L10.445,13.491 L10.446,13.486 Z M10.42,13.489 L10.414,13.49 L10.412,13.492 L10.42,13.489 Z M10.434,13.49 L10.432,13.492 L10.433,13.492 L10.434,13.49 Z M14.971,13.489 L14.978,13.492 L14.976,13.49 L14.971,13.489 Z M14.958,13.491 L14.958,13.492 L14.959,13.492 L14.958,13.491 Z M14.968,13.477 L14.9692574,13.4799907 L14.976,13.49 L14.985,13.491 L14.9827737,13.488561 L14.968,13.477 Z M10.4086619,13.488561 L10.404,13.491 L10.414,13.49 L10.4221782,13.4799907 L10.424,13.476 L10.4086619,13.488561 Z M14.8834158,13.4777815 L14.941,13.49 L14.941,13.489 L14.941,13.488 L14.94,13.485 L14.8834158,13.4777815 Z M14.953,13.487 L14.957,13.49 L14.956,13.487 L14.953,13.487 Z M10.437,13.487 L10.435,13.487 L10.434,13.49 L10.437,13.487 Z M10.5080198,13.4777815 L10.452,13.485 L10.452,13.489 L10.5080198,13.4777815 Z M14.9541089,13.482831 L14.956,13.487 L14.971,13.489 L14.9541089,13.482831 Z M10.437,13.482 L10.42,13.489 L10.435,13.487 L10.437,13.482 Z M14.949,13.486 L14.949,13.487 L14.95,13.488 L14.95,13.486 L14.949,13.486 Z M10.442,13.482 L10.437,13.487 L10.441,13.486 L10.442,13.482 Z M10.442,13.486 L10.441,13.486 L10.441,13.487 L10.442,13.486 Z M14.949,13.483 L14.95,13.486 L14.953,13.487 L14.949,13.483 Z M10.452,13.481 L10.446,13.484 L10.446,13.486 L10.452,13.485 L10.452,13.481 Z M10.448,13.478 L10.446,13.478 L10.445,13.479 L10.442,13.486 L10.443,13.486 L10.446,13.484 L10.448,13.478 Z M14.94,13.484 L14.94,13.485 L14.941,13.485 L14.94,13.484 Z M14.941,13.483 L14.941,13.485 L14.944,13.485 L14.941,13.483 Z M14.941,13.483 L14.94,13.482 L14.94,13.481 L14.94,13.48 L14.94,13.479 L14.94,13.478 L14.94,13.477 L14.94,13.476 L14.8632178,13.4449598 L14.9222339,13.4730476 L14.94,13.483 L14.941,13.483 Z M10.445,13.462 L10.437,13.482 L10.442,13.48 L10.445,13.462 Z M14.946,13.462 L14.949,13.48 L14.9541089,13.482831 L14.946,13.462 Z M10.445,13.479 L10.442,13.48 L10.442,13.482 L10.445,13.479 Z M10.452,13.476 L10.452,13.481 L10.4692017,13.4721008 L10.4983547,13.4575835 L10.4983547,13.4575835 L10.505,13.454 L10.452,13.476 Z M10.452,13.471 L10.448,13.475 L10.448,13.478 L10.452,13.476 L10.452,13.471 Z M14.938,13.467 L14.937,13.465 L14.934,13.459 L14.929,13.449 L14.9172239,13.4426717 C14.9148372,13.4426322 14.9155374,13.4454134 14.9207792,13.4521494 L14.939,13.472 L14.939,13.471 L14.94,13.472 L14.939,13.469 L14.938,13.467 Z M10.4524752,13.462633 L10.4499505,13.4717853 L10.449,13.472 L10.452,13.467 L10.4524752,13.462633 Z M10.4742118,13.4426717 L10.46,13.449 L10.4575248,13.4575835 L10.452,13.467 L10.452,13.471 L10.4706564,13.4521494 C10.4758982,13.4454134 10.4765985,13.4426322 10.4742118,13.4426717 Z M10.446,13.451 L10.4430567,13.4541662 L10.429,13.471 L10.4344864,13.4676825 L10.445,13.46 L10.446,13.451 Z M14.939,13.469 L14.941,13.471 L14.94,13.469 L14.939,13.467 L14.939,13.468 L14.939,13.469 Z M14.944,13.459 L14.946,13.462 L14.946,13.46 L14.944,13.459 Z M10.455,13.453 L10.452,13.455 L10.4524752,13.462633 L10.455,13.453 Z M10.447,13.458 L10.445,13.46 L10.445,13.462 L10.447,13.458 Z M10.453,13.444 L10.447,13.458 L10.452,13.455 L10.453,13.444 Z M10.467535,13.4342345 L10.46,13.436 L10.455,13.453 L10.4592457,13.4501177 L10.46,13.449 L10.467535,13.4342345 Z M14.9239006,13.4342345 L14.929,13.449 L14.9321899,13.4501177 L14.935,13.452 L14.9309916,13.4360048 C14.9265339,13.4321979 14.9237922,13.4311229 14.9239006,13.4342345 Z M10.4567358,13.3784878 L10.446,13.451 L10.453,13.444 L10.4543688,13.4061417 L10.4567358,13.3784878 L10.4567358,13.3784878 Z M14.938,13.444 L14.945,13.451 L14.9313861,13.3515439 L14.933,13.378 L14.934,13.391 L14.935,13.406 L14.937,13.432 L14.937,13.434 L14.937,13.436 L14.937,13.44 L14.938,13.442 L14.938,13.444 Z M14.938,13.45 L14.938,13.451 L14.938,13.452 L14.938,13.453 L14.938,13.454 L14.944,13.459 L14.938,13.444 L14.937,13.443 L14.938,13.449 L14.938,13.45 Z M14.9162376,13.39194 L14.9309916,13.4360048 L14.937,13.443 L14.937,13.44 L14.9162376,13.39194 Z M10.475198,13.39194 L10.454,13.442 L10.46,13.436 L10.475198,13.39194 Z M22.5262346,7.5699297 L21.1321782,6.46906867 C21.6531079,6.88164496 22.1748019,7.29345693 22.6968396,7.70534565 L22.6918441,7.6998855 L22.624,7.638 L22.61,7.628 L22.5379043,7.57687395 C22.5340349,7.57452332 22.5301449,7.57220837 22.5262346,7.5699297 Z M13.2145545,1.31352411 C13.0446271,1.45351606 12.8725505,1.5910517 12.6995024,1.7274159 L12.702,1.73 L12.7331683,1.70504776 C12.8935746,1.57860767 13.0531428,1.45123639 13.2110367,1.32191176 Z M21.273,21.602 L21.282,21.595 L21.28,21.596 L21.277169,21.5983372 L21.273,21.602 Z M4.067,21.58 L4.069,21.583 L4.068,21.58 L4.067,21.58 Z M21.354,21.56 L21.365,21.536 L21.362,21.538 L21.354,21.56 Z M4.03,21.549 L4.02042176,21.5197888 C4.02013822,21.5191773 4.01994282,21.5186325 4.01983634,21.5181591 L4.015,21.506 L4.01136414,21.502006 L4.008,21.498 L4.03,21.549 Z M4.06737624,21.562039 L4.081,21.57 L4.05475248,21.5468904 L4.05475248,21.5468904 L4.038,21.53 L4.048,21.548 L4.04375599,21.5447207 L4.041,21.542 L4.05380569,21.560461 L4.05380569,21.560461 L4.065,21.577 L4.067,21.578 L4.04970297,21.5494152 L4.04970297,21.5494152 L4.06737624,21.562039 L4.06737624,21.562039 Z M3.992,21.499 L3.99,21.453 L3.983,21.44 L3.992,21.499 Z M4.007,21.497 L4.006,21.494 L4.00583046,21.4924258 L4,21.487 L4.007,21.497 Z M21.405,21.441 L21.401,21.448 L21.397,21.492 L21.405,21.441 Z M21.405,21.439 L21.423,21.396 L21.406,21.429 L21.405,21.439 Z M3.983,21.438 L3.982,21.427 L3.966,21.396 L3.983,21.438 Z M14.945,13.478 L14.945,13.479 L14.944,13.478 L14.945,13.478 Z M14.94,13.474 L14.94,13.473 L14.939,13.472 L14.94,13.474 Z M14.94,13.475 L14.94,13.476 L14.942,13.477 L14.942,13.475 L14.94,13.473 L14.94,13.474 L14.94,13.475 Z M14.962,13.471 L14.9483789,13.4541662 L14.945,13.451 L14.946,13.46 L14.9569493,13.4676825 L14.962,13.471 Z M14.938,13.457 L14.938,13.455 L14.938,13.454 L14.935,13.452 L14.939,13.465 L14.939,13.462 L14.939,13.46 L14.938,13.457 Z M15.6963861,23.1400093 L15.8076875,23.1277849 L15.8076875,23.1277849 L15.54892,23.1292775 C15.5968051,23.1383691 15.6461384,23.1421805 15.6963861,23.1400093 Z M14.951,13.491 L14.95,13.49 L14.951,13.49 L14.951,13.491 Z M14.945,13.478 L14.942,13.477 L14.944,13.485 L14.945,13.491 L14.951,13.492 L14.951,13.491 L14.952,13.492 L14.959,13.494 L14.958,13.492 L14.95,13.488 L14.946,13.486 L14.949,13.486 L14.948,13.485 L14.948,13.484 L14.947,13.483 L14.947,13.482 L14.946,13.481 L14.946,13.48 L14.949,13.483 L14.949,13.48 L14.945,13.478 Z" id="Combined-Shape"></path>
                        </g>
                    </g>
                </g>
            </g>
        </g>
    </g>
</svg>