<?xml version="1.0" encoding="UTF-8"?>
<svg width="38px" height="38px" viewBox="0 0 38 38" version="1.1" xmlns="http://www.w3.org/2000/svg" xmlns:xlink="http://www.w3.org/1999/xlink">
    <!-- Generator: Sketch 57.1 (83088) - https://sketch.com -->
    <title>icn_instagram</title>
    <desc>Created with Sketch.</desc>
    <g id="Page-1" stroke="none" stroke-width="1" fill="none" fill-rule="evenodd">
        <g id="bj_tools" transform="translate(-48.000000, -249.000000)" fill="#FF8B8C" fill-rule="nonzero">
            <path d="M76,249.95 C80.998177,249.95 85.05,254.001823 85.05,259 L85.05,277 C85.05,281.998177 80.998177,286.05 76,286.05 L58,286.05 C53.001823,286.05 48.95,281.998177 48.95,277 L48.95,259 C48.95,254.001823 53.001823,249.95 58,249.95 L76,249.95 Z M76,252.05 L58,252.05 C54.2415872,252.05 51.1799663,255.033321 51.05403,258.761069 L51.05,259 L51.05,277 C51.05,280.758413 54.0333206,283.820034 57.7610692,283.94597 L58,283.95 L76,283.95 C79.7584128,283.95 82.8200337,280.966679 82.94597,277.238931 L82.95,277 L82.95,259 C82.95,255.161621 79.838379,252.05 76,252.05 Z M67,256.95 C73.1027465,256.95 78.05,261.897254 78.05,268 C78.05,274.102746 73.1027465,279.05 67,279.05 C60.8972535,279.05 55.95,274.102746 55.95,268 C55.95,261.897254 60.8972535,256.95 67,256.95 Z M67,259.05 C62.0570515,259.05 58.05,263.057051 58.05,268 C58.05,272.942949 62.0570515,276.95 67,276.95 C71.9429485,276.95 75.95,272.942949 75.95,268 C75.95,263.057051 71.9429485,259.05 67,259.05 Z M78,254.9 C79.159798,254.9 80.1,255.840202 80.1,257 C80.1,258.159798 79.159798,259.1 78,259.1 C76.840202,259.1 75.9,258.159798 75.9,257 C75.9,255.840202 76.840202,254.9 78,254.9 Z" id="icn_instagram"></path>
        </g>
    </g>
</svg>