<?xml version="1.0" encoding="UTF-8"?>
<svg width="32px" height="37px" viewBox="0 0 32 37" version="1.1" xmlns="http://www.w3.org/2000/svg" xmlns:xlink="http://www.w3.org/1999/xlink">
    <!-- Generator: Sketch 57.1 (83088) - https://sketch.com -->
    <title>icn_traffa_lakare</title>
    <desc>Created with Sketch.</desc>
    <g id="Page-1" stroke="none" stroke-width="1" fill="none" fill-rule="evenodd">
        <g id="bj_tools" transform="translate(-57.000000, -489.000000)" fill="#FF8B8C" fill-rule="nonzero">
            <path d="M66.1825693,503 C69.5450693,503 72.2746282,505.729559 72.2746282,509.092059 C72.2746282,511.07 71.3252164,512.850147 69.8219811,513.957794 C72.5910988,514.590735 74.7668341,516.924706 75.1228635,519.852059 L75.1228635,519.852059 L75.3206576,522.700294 C75.3602164,523.333235 75.1228635,524.005735 74.6877164,524.480441 C74.2525694,524.955147 73.6196282,525.232059 72.9471282,525.232059 L72.9471282,525.232059 L59.3784516,525.232059 C58.7059516,525.232059 58.0730104,524.955147 57.6378634,524.480441 C57.1631575,524.005735 56.9653634,523.372794 57.0049222,522.700294 L57.0049222,522.700294 L57.2422751,519.852059 C57.5983046,516.885147 59.7740399,514.590735 62.5431575,513.957794 C61.079481,512.850147 60.0905104,511.07 60.0905104,509.092059 C60.0905104,505.729559 62.8200693,503 66.1825693,503 Z M68.279187,515.619265 L64.0859516,515.619265 C61.5146281,515.619265 59.3784516,517.557647 59.061981,520.089412 L59.061981,520.089412 L58.8641869,522.898088 C58.8641869,523.095882 58.9828634,523.214559 59.0224222,523.293677 C59.1015399,523.333235 59.2202163,523.451912 59.4180104,523.451912 L59.4180104,523.451912 L72.986687,523.451912 C73.1844811,523.451912 73.3427164,523.372794 73.3822752,523.293677 C73.4613929,523.214559 73.5405105,523.056324 73.5405105,522.85853 L73.5405105,522.85853 L73.3031576,520.049853 C72.986687,517.518088 70.8505105,515.619265 68.279187,515.619265 L68.279187,515.619265 Z M66.2221281,504.819706 C63.8485987,504.819706 61.9497752,506.758088 61.9497752,509.092059 C61.9497752,511.465588 63.8881575,513.364412 66.2221281,513.364412 C68.5956576,513.364412 70.4944811,511.426029 70.4944811,509.092059 C70.4944811,506.718529 68.5560987,504.819706 66.2221281,504.819706 Z M82.9721911,489.75 C83.4644464,489.75 83.863543,490.149097 83.863543,490.641352 L83.863543,494.230695 L87.4528861,494.230695 C87.9451414,494.230695 88.344238,494.629792 88.344238,495.122047 L88.344238,500.971878 C88.344238,501.464133 87.9451414,501.86323 87.4528861,501.86323 L83.863543,501.86323 L83.863543,505.452886 C83.863543,505.945141 83.4644464,506.344238 82.9721911,506.344238 L77.1223601,506.344238 C76.6301048,506.344238 76.2310081,505.945141 76.2310081,505.452886 L76.2310081,501.86323 L72.6413519,501.86323 C72.1490966,501.86323 71.75,501.464133 71.75,500.971878 L71.75,495.122047 C71.75,494.629792 72.1490966,494.230695 72.6413519,494.230695 L76.2310081,494.230695 L76.2310081,490.641352 C76.2310081,490.149097 76.6301048,489.75 77.1223601,489.75 L82.9721911,489.75 Z M82.0808392,491.532704 L78.013712,491.532704 L78.013712,495.122047 C78.013712,495.614302 77.6146153,496.013399 77.1223601,496.013399 L73.5327038,496.013399 L73.5327038,500.080526 L77.1223601,500.080526 C77.6146153,500.080526 78.013712,500.479623 78.013712,500.971878 L78.013712,504.561534 L82.0808392,504.561534 L82.0808392,500.971878 C82.0808392,500.479623 82.4799358,500.080526 82.9721911,500.080526 L86.5615342,500.080526 L86.5615342,496.013399 L82.9721911,496.013399 C82.4799358,496.013399 82.0808392,495.614302 82.0808392,495.122047 L82.0808392,491.532704 Z" id="icn_traffa_lakare"></path>
        </g>
    </g>
</svg>