<?xml version="1.0" encoding="UTF-8"?>
<svg width="41px" height="75px" viewBox="0 0 41 75" version="1.1" xmlns="http://www.w3.org/2000/svg" xmlns:xlink="http://www.w3.org/1999/xlink">
    <!-- Generator: Sketch 57.1 (83088) - https://sketch.com -->
    <title>icon_mother_now</title>
    <desc>Created with Sketch.</desc>
    <g id="Page-1" stroke="none" stroke-width="1" fill="none" fill-rule="evenodd">
        <g id="bj_uc03_2" transform="translate(-168.000000, -293.000000)" fill="#4A4152" fill-rule="nonzero">
            <g id="image" transform="translate(129.000000, 273.000000)">
                <g id="icon_mother_now" transform="translate(39.000000, 20.000000)">
                    <path d="M7.56797069,74.466812 C7.76162094,74.7203974 8.04464822,74.8546484 8.34257168,74.8397316 C8.40215637,74.8397316 8.47663724,74.8397316 8.53622193,74.8397316 C8.65539131,74.8397316 8.78945687,74.8397316 8.92352242,74.8397316 C8.99800329,74.8397316 9.07248415,74.8397316 9.13206884,74.8397316 C10.7110632,74.8546484 12.2751613,74.8695652 13.8392595,74.8695652 C15.6268002,74.8695652 17.414341,74.8546484 19.1571932,74.8397316 C19.1571932,74.8397316 19.1571932,74.8397316 19.1571932,74.8397316 L38.3136715,74.8397316 C38.6264912,74.8397316 38.9095185,74.6905638 39.0733764,74.4220616 C39.2372343,74.1684763 39.2670266,73.840307 39.1329611,73.556888 L30.5527655,54.4484849 L36.1388303,47.7359311 C36.1537265,47.7210143 36.1686226,47.7060975 36.1686226,47.676264 C36.1835188,47.6464304 36.2133112,47.6165968 36.2282073,47.5867632 C36.2431035,47.5569297 36.2579997,47.5270961 36.2579997,47.5121793 C36.2728959,47.4823457 36.287792,47.4525122 36.287792,47.4375954 C36.3026882,47.4077618 36.3026882,47.3779282 36.3026882,47.3480947 C36.3026882,47.3182611 36.3175844,47.2884275 36.3175844,47.2585939 C36.3175844,47.2287604 36.3175844,47.1989268 36.3175844,47.1690932 C36.3175844,47.1392597 36.3175844,47.1094261 36.3175844,47.0795925 C36.3175844,47.0497589 36.3026882,47.0050086 36.3026882,46.975175 C36.3026882,46.9602582 36.3026882,46.9304246 36.287792,46.9155079 C36.287792,46.9155079 36.287792,46.9155079 36.287792,46.9005911 C36.2728959,46.8558407 36.2579997,46.8260071 36.2431035,46.7812568 C36.2282073,46.76634 36.2282073,46.7514232 36.2282073,46.7215896 C36.2133112,46.6917561 36.198415,46.6768393 36.1835188,46.6470057 C36.1686226,46.6171721 36.1537265,46.5873386 36.1388303,46.5724218 C36.1239341,46.557505 36.109038,46.5425882 36.0941418,46.5276714 C36.0643494,46.4978378 36.0345571,46.4680043 36.0047647,46.4381707 C36.0047647,46.4381707 36.0047647,46.4381707 36.0047647,46.4381707 C35.9898686,46.4232539 35.9749724,46.4232539 35.9600762,46.4083371 C35.9302839,46.3934203 35.9004915,46.3635868 35.8706992,46.34867 C35.8409068,46.3337532 35.8260107,46.3188364 35.7962183,46.3188364 C35.766426,46.3039196 35.7366336,46.2890028 35.7068413,46.2890028 C35.6770489,46.2740861 35.6472566,46.2740861 35.6323604,46.2740861 C35.6025681,46.2740861 35.5727757,46.2591693 35.5429834,46.2591693 C35.513191,46.2591693 35.4833987,46.2591693 35.4536063,46.2591693 C35.423814,46.2591693 35.3940217,46.2591693 35.3642293,46.2591693 C35.334437,46.2591693 35.2897484,46.2740861 35.2599561,46.2740861 C35.2450599,46.2740861 35.2152676,46.2740861 35.2003714,46.2890028 C23.789903,49.3767776 12.6028771,43.3056456 9.5938502,41.4857977 C9.95135835,40.8891262 10.2343856,40.2178709 10.4280359,39.4571148 C10.5472053,38.9648608 10.264178,38.4726069 9.77260428,38.3532726 C9.28103057,38.2339383 8.78945687,38.5173572 8.67028748,39.0096112 C8.44684489,39.8897016 8.08933674,40.6057073 7.61265921,41.1427116 C7.61265921,41.1427116 7.61265921,41.1427116 7.61265921,41.1427116 C7.59776303,41.1576284 7.59776303,41.1725452 7.58286686,41.187462 C7.56797069,41.2023787 7.56797069,41.2172955 7.55307452,41.2172955 C7.55307452,41.2322123 7.53817834,41.2322123 7.53817834,41.2471291 C7.52328217,41.2620459 7.52328217,41.2769627 7.508386,41.2918795 C7.508386,41.2918795 7.508386,41.2918795 7.508386,41.2918795 C7.25515106,41.739383 1.41585128,52.419802 6.58482328,59.6395265 C6.59971945,59.6544433 6.59971945,59.6693601 6.61461562,59.6842769 L8.68518366,62.2797977 L17.2802754,73.0497173 C14.9117839,73.0646341 12.4986039,73.0646341 10.0854239,73.0497173 C10.0556316,73.0348005 10.0258392,73.0198837 9.9811507,73.0049669 C9.8172928,72.9602166 9.56405786,72.8856327 9.2661344,72.8557991 C9.38530378,71.1254519 9.56405786,69.3801879 9.72791576,67.6796743 L9.83218897,66.6354992 C9.87687749,66.1432453 9.51936934,65.6957417 9.01289946,65.6360746 C8.52132575,65.5913242 8.07444057,65.9493271 8.01485588,66.4564978 L7.91058267,67.5006728 C7.70203624,69.5890229 7.47859365,71.7519569 7.35942427,73.8850573 C7.35942427,73.8850573 7.35942427,73.8999741 7.35942427,73.8999741 C7.38921661,74.0938923 7.44880131,74.3027273 7.56797069,74.466812 Z M8.67028748,43.0371434 C9.99604687,43.8426499 12.7369427,45.3939957 16.3716089,46.7066729 C19.5444937,47.8552654 23.8345915,48.9591076 28.5566783,48.9591076 C30.0313994,48.9591076 31.550809,48.8546901 33.0851149,48.6011047 L28.8248094,53.7324792 C28.6013668,54.0009813 28.5566783,54.373901 28.6907439,54.6871535 L36.9283275,73.0198837 L19.6040784,73.0198837 L10.1152163,61.1312051 L8.05954439,58.5655179 C4.36529352,53.3595595 7.46369748,45.6177475 8.67028748,43.0371434 Z" id="Shape"></path>
                    <path d="M5.09703693,29.4647684 C5.1572978,30.6123592 5.26275432,31.6556237 5.39834127,32.5796579 C5.38327605,32.9820599 5.4284717,34.114747 6.24199341,34.9493585 C6.61862384,35.3368567 7.28149338,35.7690663 8.39631943,35.7988738 C8.57710203,35.9330078 8.84827593,36.1267569 9.19477592,36.3503136 C11.4846889,37.9003065 17.7518191,41.7305773 26.3088623,43.83201 C26.8512101,44.0257591 31.084536,45.4565217 34.6700577,45.4565217 C35.8150142,45.4565217 36.8997098,45.307484 37.7885576,44.9348895 C37.7885576,44.9348895 37.7885576,44.9348895 37.7885576,44.9348895 C38.2706445,44.7262366 38.6924706,44.4430649 39.0239053,44.1151818 C39.0992314,44.0406629 39.1594923,43.9512402 39.2046879,43.8618175 L40.9070575,40.344526 C41.0426444,40.076258 41.0275792,39.7632787 40.876927,39.4950107 C40.7262749,39.2416465 40.4701662,39.0777049 40.183927,39.0478974 C40.5153618,36.6036778 40.0483401,34.3233999 38.7828619,32.2666785 C38.6924706,32.1176408 36.3874924,28.5109266 34.0825142,25.9474768 C33.8113403,25.6494013 33.374449,25.5748824 33.027949,25.7239202 C33.027949,25.7239202 33.0128838,25.7239202 33.0128838,25.7239202 L19.3637973,28.4066001 C18.8666452,28.5109266 18.5502756,28.9878475 18.6406669,29.4796721 C18.7310582,29.9118817 19.1076886,30.2099572 19.5445799,30.2099572 C19.6048408,30.2099572 19.6651017,30.2099572 19.7253625,30.1950535 L33.0882099,27.5570848 C35.1672098,29.9714968 37.2311445,33.1907128 37.2462098,33.2056165 C38.2857097,34.9046472 38.6623401,36.8123307 38.376101,38.8839558 L37.9844054,38.8541483 L37.8940141,38.4219387 C37.8488184,38.1685745 37.683101,37.9450178 37.4571228,37.8257876 C37.2311445,37.6916536 36.9599706,37.661846 36.7189272,37.7363649 L31.3707752,39.3459729 C31.3707752,39.3459729 31.35571,39.3459729 31.35571,39.3459729 C31.35571,39.3459729 31.3406447,39.3459729 31.3255795,39.3459729 C31.3255795,39.3459729 31.3255795,39.3459729 31.3255795,39.3459729 C31.0544056,39.3757805 29.5177535,39.3459729 26.0376884,36.6931005 C26.0226232,36.6931005 26.0226232,36.6781967 26.007558,36.6781967 L15.7782757,29.3753457 L14.9798192,28.8090021 L14.753841,28.6599644 L17.3601235,17.1989594 C17.4354496,16.8710763 17.329993,16.5431932 17.0738844,16.3196365 C16.9834931,16.2302138 14.6634497,14.2182038 11.7407976,14.0244547 C11.3641672,13.9946472 10.9875367,14.009551 10.6109063,14.0393585 C10.6109063,14.0393585 10.6109063,14.0393585 10.6109063,14.0393585 C8.78801507,14.2331076 7.17603686,15.1869494 5.85029778,16.88598 C5.75990647,17.0052103 5.68458039,17.154248 5.66951517,17.3181896 C5.66951517,17.3629009 5.60925431,17.7503991 5.53392822,18.4210691 C5.50379779,18.2720314 5.48873257,18.1378974 5.45860214,17.9888596 C5.45860214,17.9888596 5.45860214,17.9888596 5.45860214,17.9888596 C5.23262388,16.4686743 5.20249345,14.9335852 5.36821084,13.4283036 C5.47366735,13.0408054 5.53392822,12.6831148 5.518863,12.3552316 C6.30225428,8.04803991 8.69762377,4.96295795 11.3491019,4.82882395 C11.8462541,4.79901639 12.328341,4.82882395 12.8254932,4.90334284 C12.8254932,4.90334284 12.8254932,4.90334284 12.8254932,4.90334284 C13.3226453,4.97786172 13.8047323,5.1268995 14.3018844,5.32064861 C14.3018844,5.32064861 14.3018844,5.32064861 14.3018844,5.32064861 C14.3018844,5.32064861 14.3018844,5.32064861 14.3018844,5.32064861 L14.3922757,5.35045617 C14.4224062,5.36535994 14.4676018,5.38026372 14.4977323,5.3951675 C14.4977323,5.3951675 14.4977323,5.3951675 14.4977323,5.3951675 C16.4863409,6.27449038 17.7668843,7.88409836 18.369493,8.77832502 C18.369493,8.77832502 18.369493,8.77832502 18.369493,8.77832502 C18.4900147,8.95717035 18.5653408,9.09130435 18.6105365,9.16582324 C19.0775582,11.4162937 24.8626015,16.3941554 26.6402971,17.8696294 C26.6553623,17.8845331 26.6553623,17.8845331 26.6704275,17.8994369 C29.5629491,20.0902922 30.0902317,22.1321098 30.1956883,22.7729722 C30.0902317,23.1753742 30.2710143,23.6075837 30.66271,23.8013329 C30.7982969,23.8758517 30.9338839,23.9056593 31.084536,23.9056593 C31.4159708,23.9056593 31.7323404,23.726814 31.8980578,23.4138346 C32.0185795,23.190278 32.0637751,22.9518175 32.0336447,22.7282609 C31.9583186,21.9532644 31.431036,19.2407769 27.815384,16.483578 C24.410645,13.6369565 20.6142103,9.89610834 20.4183625,8.80813257 C20.3882321,8.62928724 20.3279712,8.48024947 20.2526451,8.34611547 C20.2225147,8.28650036 20.1471886,8.16727014 20.0567973,8.03313614 C20.0869277,7.04948681 20.4183625,3.2639273 23.4163407,1.7288382 C23.7929711,1.53508909 23.9888189,1.11778332 23.8833624,0.700477548 C23.7779059,0.298075552 23.4163407,0 22.9945146,0 L16.0193192,0 L3.80142828,0 C3.54531959,0 3.30427612,0.104326443 3.12349352,0.283171775 C2.94271092,0.462017106 2.86738483,0.715381326 2.88245005,0.968745545 C2.88245005,0.983649323 3.00297179,2.78700641 3.68090654,12.2210976 C3.63571089,12.4744619 3.59051524,12.7576336 3.56038481,13.0557092 C3.33440656,13.7561867 2.85231962,14.6355096 2.34010224,15.5744476 C0.321363181,19.3749109 -2.79713671,25.0234426 5.09703693,29.4647684 Z M10.8519498,15.9023307 C10.8519498,15.9023307 10.8519498,15.9023307 10.8519498,15.9023307 C11.1231237,15.8725232 11.3942976,15.8725232 11.6654715,15.8874269 C13.3226453,16.0066572 14.7990366,16.9157876 15.4769714,17.4076123 L12.8556236,28.883521 C12.7802975,29.2412117 12.9158845,29.6138061 13.2171888,29.822459 L13.925254,30.3291875 L14.7237105,30.895531 L24.9379276,38.1834783 C28.2673405,40.7171205 30.2258187,41.2089451 31.2351882,41.2089451 C31.566623,41.2089451 31.7926012,41.14933 31.9432534,41.1046187 L36.2971011,39.7930862 L36.3272315,39.9123165 C36.4025576,40.3147185 36.7490576,40.612794 37.1558185,40.6426016 L38.7075358,40.7618318 L37.6529706,42.9377833 C37.5023184,43.0719173 37.3064706,43.1911475 37.0804924,43.2805702 C37.0804924,43.2805702 37.0804924,43.2805702 37.0804924,43.2805702 C34.5344707,44.3834498 28.8850144,42.8185531 26.911471,42.1180756 C26.8813405,42.1031718 26.8512101,42.1031718 26.8210797,42.088268 C18.5201452,40.0613542 12.463928,36.3652174 10.2493411,34.8599359 C9.616602,34.4426301 9.28516722,34.1743621 9.27010201,34.1743621 C9.0893194,34.0402281 8.87840637,33.9657092 8.65242812,33.980613 C8.15527596,34.0104205 7.79371075,33.9209979 7.58279772,33.6974412 C7.26642816,33.3844619 7.23629773,32.8032145 7.25136295,32.6243692 C7.25136295,32.5498503 7.25136295,32.4753314 7.23629773,32.4008125 C7.07058034,31.3277406 6.95005861,30.0758232 6.90486296,28.6748681 C6.90486296,28.6748681 6.90486296,28.6748681 6.90486296,28.6748681 C6.90486296,28.5258304 6.88979774,28.3618888 6.88979774,28.212851 L6.88979774,28.1681397 L6.88979774,28.1681397 C6.88979774,28.0041981 6.88979774,27.8402566 6.88979774,27.6614113 L6.88979774,27.6614113 C6.87473252,26.2604562 6.91992817,24.7402708 7.01031948,23.1455666 C7.01031948,23.1455666 7.01031948,23.1455666 7.01031948,23.1455666 C7.16097164,20.6268282 7.41708033,18.5552031 7.50747163,17.8696294 C8.47164551,16.6922309 9.60153678,16.0215609 10.8519498,15.9023307 Z M18.50508,6.06583749 C17.7066235,5.24612972 16.6369931,4.3966144 15.2961888,3.80046329 C15.2961888,3.80046329 15.2961888,3.80046329 15.2961888,3.80046329 C15.2961888,3.80046329 15.2961888,3.80046329 15.2961888,3.80046329 C15.2961888,3.80046329 15.2961888,3.80046329 15.2811235,3.80046329 C15.2811235,3.80046329 15.2811235,3.80046329 15.2660583,3.80046329 C15.2660583,3.80046329 15.2660583,3.80046329 15.2509931,3.80046329 C15.2057975,3.78555952 15.1606018,3.75575196 15.1003409,3.74084818 L15.0400801,3.71104063 C15.0400801,3.71104063 15.0400801,3.71104063 15.0400801,3.71104063 C14.9496888,3.66632929 14.8442323,3.63652174 14.753841,3.60671418 L16.4411452,1.87787598 L20.4334277,1.87787598 C19.3035364,3.20431219 18.7611886,4.78411262 18.50508,6.06583749 Z M13.8800584,1.87787598 L12.674841,3.11488952 C12.2228845,3.07017819 11.7558628,3.05527441 11.3039063,3.07017819 C8.86334115,3.18940841 6.6788847,4.91824661 5.23262388,7.67544547 C5.00664563,4.56055595 4.8861239,2.81681397 4.82586303,1.87787598 L13.8800584,1.87787598 Z M3.56038481,17.288382 C3.59051524,17.6311689 3.63571089,17.959052 3.68090654,18.3018389 C3.68090654,18.3018389 3.68090654,18.3018389 3.68090654,18.3018389 C3.8164935,19.2258731 4.02740653,20.1499073 4.29858044,21.044134 C4.29858044,21.044134 4.29858044,21.044134 4.29858044,21.044134 C4.52455869,21.7744191 4.78066738,22.4898004 5.09703693,23.190278 C5.11210215,23.2349893 5.12716737,23.2647969 5.1572978,23.3095082 C5.08197171,24.7104633 5.03677606,26.0518033 5.05184128,27.3037206 C2.86738483,25.8431504 1.82788487,24.2037349 1.8580153,22.2960513 C1.88814574,20.5970207 2.70166745,18.8830862 3.56038481,17.288382 Z" id="Shape"></path>
                </g>
            </g>
        </g>
    </g>
</svg>