<?xml version="1.0" encoding="UTF-8"?>
<svg width="41px" height="41px" viewBox="0 0 41 41" version="1.1" xmlns="http://www.w3.org/2000/svg" xmlns:xlink="http://www.w3.org/1999/xlink">
    <!-- Generator: Sketch 57.1 (83088) - https://sketch.com -->
    <title>icn_mvc</title>
    <desc>Created with Sketch.</desc>
    <g id="Page-1" stroke="none" stroke-width="1" fill="none" fill-rule="evenodd">
        <g id="bj_tools" transform="translate(-168.000000, -488.000000)" fill="#FF8B8C" fill-rule="nonzero">
            <path d="M190.298667,488.021703 C191.92902,488.211955 193.116416,489.645854 193.021915,491.26355 L193.006097,491.443996 L192.926603,492.124288 C198.373873,497.786233 198.305009,506.818113 192.726423,512.394548 C190.884687,514.23549 188.622194,515.516106 186.156135,516.157405 L185.743277,516.258354 L185.743277,517.095527 C185.743277,518.507491 184.768926,519.696752 183.452045,520.02605 L183.278387,520.064072 L183.278387,521.214604 C183.278387,523.623187 185.23947,525.583425 187.649305,525.583425 C189.988263,525.583425 191.904477,523.736799 192.015172,521.425924 L192.020223,521.214604 L192.020223,517.639952 C192.020223,514.127728 194.878035,511.271147 198.391557,511.271147 C201.828698,511.271147 204.638327,514.004879 204.758861,517.411846 L204.76289,517.639952 L204.76289,518.580668 C207.192528,519.06157 209,521.207255 209,523.739467 C209,526.640617 206.639465,529.000136 203.737281,529.000136 C200.834895,529.000136 198.474318,526.640659 198.474318,523.739467 C198.474318,521.264803 200.199494,519.161064 202.54117,518.616053 L202.762475,518.569561 L202.762475,517.639952 C202.762475,515.23137 200.801392,513.271131 198.391557,513.271131 C196.052599,513.271131 194.136385,515.117758 194.025689,517.428632 L194.020639,517.639952 L194.020639,521.214604 C194.020639,524.726829 191.162827,527.58341 187.649305,527.58341 C184.212164,527.58341 181.402535,524.849678 181.282001,521.44271 L181.277972,521.214604 L181.277972,520.072786 C179.918151,519.8321 178.870834,518.683781 178.785918,517.280021 L178.780353,517.095527 L178.780353,516.148084 C176.3238,515.502958 174.074542,514.225596 172.242705,512.394548 C169.507394,509.660414 168,506.022997 168,502.156549 C168,498.575588 169.295779,495.189057 171.666378,492.533571 L171.93419,492.241552 L171.8458,491.485057 C171.648128,489.79479 172.862488,488.260017 174.552743,488.062774 C176.184465,487.870757 177.66905,488.992701 177.95041,490.589745 L177.976667,490.769107 L178.128335,492.067133 C178.326007,493.7574 177.111647,495.292173 175.421421,495.489412 C175.301722,495.503505 175.181645,495.51042 175.060829,495.51042 C174.137684,495.51042 173.279445,495.092701 172.702969,494.404932 C170.948245,496.607321 170.000415,499.311095 170.000415,502.156549 C170.000415,505.490606 171.298337,508.622636 173.656968,510.980251 C178.524375,515.845093 186.444753,515.845093 191.312134,510.980277 C195.850271,506.443868 196.172996,499.21962 192.190766,494.308026 C191.615689,495.028123 190.738708,495.469405 189.791063,495.469405 C189.670247,495.469405 189.550169,495.46249 189.430982,495.448457 C187.800628,495.258204 186.613233,493.824306 186.707733,492.206614 L186.723551,492.026168 L186.875221,490.728127 C187.072794,489.036202 188.608286,487.820899 190.298667,488.021703 Z M203.737281,520.478539 C201.938784,520.478539 200.474733,521.94196 200.474733,523.739467 C200.474733,525.536919 201.938727,527.000151 203.737281,527.000151 C205.535778,527.000151 206.999585,525.536975 206.999585,523.739467 C206.999585,521.941903 205.535722,520.478539 203.737281,520.478539 Z M180.780768,516.526007 L180.780768,517.095527 C180.780768,517.661121 181.241961,518.122115 181.808014,518.122115 L182.715617,518.122115 C183.281669,518.122115 183.742862,517.661121 183.742862,517.095527 L183.742862,516.571311 C183.317579,516.609219 182.898276,516.628501 182.484564,516.628501 C181.920408,516.628501 181.351707,516.594039 180.780768,516.526007 Z M174.912574,490.041754 C174.869526,490.041754 174.827357,490.044173 174.786061,490.049048 C174.190895,490.118624 173.763287,490.658964 173.832613,491.252742 L173.984278,492.550741 C174.053664,493.143763 174.598006,493.573719 175.188641,493.503075 C175.783241,493.433565 176.210848,492.893225 176.141522,492.299448 L175.989854,491.001423 C175.925868,490.454297 175.458858,490.041754 174.912574,490.041754 Z M189.939318,490.000739 C189.393033,490.000739 188.926024,490.413282 188.862044,490.960357 L188.710375,492.258388 C188.641044,492.85221 189.068651,493.39255 189.662531,493.461977 C190.25424,493.530279 190.798394,493.101335 190.867614,492.509726 L191.019274,491.211772 C191.088605,490.617949 190.660997,490.07761 190.065831,490.008033 C190.024535,490.003158 189.982366,490.000739 189.939318,490.000739 Z" id="icn_mvc"></path>
        </g>
    </g>
</svg>