<?xml version="1.0" encoding="UTF-8"?>
<svg width="18px" height="21px" viewBox="0 0 18 21" version="1.1" xmlns="http://www.w3.org/2000/svg" xmlns:xlink="http://www.w3.org/1999/xlink">
    <!-- Generator: Sketch 57.1 (83088) - https://sketch.com -->
    <title>icon_notifications</title>
    <desc>Created with Sketch.</desc>
    <g id="Page-1" stroke="none" stroke-width="1" fill="none" fill-rule="evenodd">
        <g id="bj_uc01-copy-2" transform="translate(-343.000000, -60.000000)" fill="#554A61" fill-rule="nonzero">
            <g id="notifications" transform="translate(343.000000, 54.000000)">
                <path d="M8.71700451,6 C12.4449266,6 15.4670045,9.02207794 15.4670045,12.75 L15.4670045,16.3996972 L17.1404251,19.5763304 C17.7195893,20.6757506 17.2978386,22.0365121 16.1984184,22.6156763 C15.8751072,22.7859936 15.5151775,22.875 15.1497488,22.875 L10.7803966,22.8740738 C11.0747988,23.2544619 11.25,23.7317708 11.25,24.25 C11.25,25.4926407 10.2426407,26.5 9,26.5 C7.75735931,26.5 6.75,25.4926407 6.75,24.25 C6.75,23.7317708 6.92520121,23.2544619 7.21960335,22.8740738 L2.25,22.875 C1.00735931,22.875 2.94875235e-13,21.8676407 2.94875235e-13,20.625 C2.94875235e-13,20.2877174 0.0758278884,19.9547499 0.221874695,19.6507271 L1.91556711,16.125 L1.96700451,12.75 C1.96700451,9.02207794 4.98908244,6 8.71700451,6 Z M9,23 C8.30964406,23 7.75,23.5596441 7.75,24.25 C7.75,24.9403559 8.30964406,25.5 9,25.5 C9.69035594,25.5 10.25,24.9403559 10.25,24.25 C10.25,23.5596441 9.69035594,23 9,23 Z M8.71700451,7 C5.54136719,7 2.96700451,9.57436269 2.96688839,12.7652389 L2.9121025,16.3599458 L1.12326372,20.0837373 C1.0421266,20.2526388 1,20.4376208 1,20.625 C1,21.3153559 1.55964406,21.875 2.25,21.875 L15.1497488,21.875 C15.3527648,21.875 15.5527257,21.825552 15.732343,21.7309313 C16.343132,21.4091734 16.577438,20.6531948 16.2556801,20.0424058 L14.4670045,16.6469854 L14.4670045,12.75 C14.4670045,9.57436269 11.8926418,7 8.71700451,7 Z" id="icon_notifications"></path>
            </g>
        </g>
    </g>
</svg>