<?xml version="1.0" encoding="UTF-8"?>
<svg width="22px" height="22px" viewBox="0 0 22 22" version="1.1" xmlns="http://www.w3.org/2000/svg" xmlns:xlink="http://www.w3.org/1999/xlink">
    <!-- Generator: Sketch 57.1 (83088) - https://sketch.com -->
    <title>icon_offers</title>
    <desc>Created with Sketch.</desc>
    <g id="Page-1" stroke="none" stroke-width="1" fill="none" fill-rule="evenodd">
        <g id="bj_uc01-copy-2" transform="translate(-252.000000, -1545.000000)" fill="currentColor" fill-rule="nonzero">
            <g id="UI-Bars-/-Tab-Bars-/-Base-/-Light-/-5-Text-Icons" transform="translate(-25.000000, 1537.000000)">
                <g id="#4">
                    <g transform="translate(225.000000, 0.000000)">
                        <g id="icon_offers" transform="translate(52.000000, 8.000000)">
                            <path d="M11,22 C17.0751322,22 22,17.0751322 22,11 C22,4.92486775 17.0751322,0 11,0 C4.92486775,0 0,4.92486775 0,11 C0,17.0751322 4.92486775,22 11,22 Z M11,20.7 C5.64283793,20.7 1.3,16.3571621 1.3,11 C1.3,5.64283793 5.64283793,1.3 11,1.3 C16.3571621,1.3 20.7,5.64283793 20.7,11 C20.7,16.3571621 16.3571621,20.7 11,20.7 Z" id="Oval"></path>
                            <path d="M14.2962114,16.4505142 C14.1941943,16.4505142 14.0935432,16.4270541 14.0019381,16.3821542 L10.9999855,14.9049412 L7.99803285,16.3821542 C7.77608651,16.4911547 7.51204825,16.4684043 7.31201838,16.3230449 C7.11198851,16.1776856 7.00880588,15.9335808 7.04393307,15.688821 L7.52147296,12.3776284 L5.18880683,9.97918897 C5.01630591,9.80186308 4.95619277,9.54359087 5.0326607,9.30831722 C5.10912862,9.07304356 5.3096003,8.89946583 5.55339341,8.85744256 L8.84991932,8.28840935 L10.410139,5.32812336 C10.5367734,5.12409641 10.7598537,5 10.9999855,5 C11.2401173,5 11.4631976,5.12409641 11.589832,5.32812336 L13.1500517,8.28840935 L16.4465976,8.85741589 C16.6903907,8.89943917 16.8908624,9.07301689 16.9673303,9.30829055 C17.0437982,9.54356421 16.9836851,9.80183641 16.8111842,9.9791623 L14.478518,12.3776018 L14.9560579,15.6887943 C14.9835137,15.8801888 14.9265651,16.074079 14.7999681,16.2202257 C14.673371,16.3663724 14.4895851,16.4503921 14.2962314,16.4505142 L14.2962114,16.4505142 Z M10.9999855,13.4954348 C11.1020153,13.4954028 11.2026911,13.5187899 11.2942588,13.5637948 L13.4557116,14.6276012 L13.111985,12.2428351 C13.082519,12.0380807 13.1497404,11.8312448 13.2939516,11.6829352 L14.9736379,9.95637564 L12.5999385,9.5462224 C12.3960502,9.51117162 12.2199876,9.38345206 12.1233786,9.20051581 L10.9999855,7.0689963 L9.87661242,9.20051581 C9.78000342,9.38345206 9.60394077,9.51117162 9.40005253,9.5462224 L7.02635307,9.95637564 L8.70603936,11.6829352 C8.85025061,11.8312448 8.91747195,12.0380807 8.88800598,12.2428351 L8.54425939,14.6276012 L10.7057122,13.5637948 C10.7972799,13.5187899 10.8979557,13.4954028 10.9999855,13.4954348 L10.9999855,13.4954348 Z" id="Shape"></path>
                        </g>
                    </g>
                </g>
            </g>
        </g>
    </g>
</svg>