<?xml version="1.0" encoding="UTF-8"?>
<svg width="52px" height="46px" viewBox="0 0 52 46" version="1.1" xmlns="http://www.w3.org/2000/svg" xmlns:xlink="http://www.w3.org/1999/xlink">
    <!-- Generator: Sketch 57.1 (83088) - https://sketch.com -->
    <title>icon_partner_now</title>
    <desc>Created with Sketch.</desc>
    <g id="Page-1" stroke="none" stroke-width="1" fill="none" fill-rule="evenodd">
        <g id="bj_uc03_3" transform="translate(-162.000000, -311.000000)" fill="#4A4152" fill-rule="nonzero">
            <g id="image" transform="translate(129.000000, 273.000000)">
                <g id="icon_partner_now" transform="translate(33.000000, 38.000000)">
                    <path d="M37.0168857,7 C41.4102813,7 44.9922109,10.5699813 45.0000218,14.9506717 C45.0034353,17.0744623 44.1826295,19.0482301 42.6539126,20.5725366 L25.9432419,37.1304423 L9.35151275,20.5743614 C6.22100037,17.4718247 6.22046707,12.4423964 9.34106864,9.34968719 C12.555306,6.14476873 17.7837785,6.25803274 20.8711263,9.54832875 L26.0310487,15.0474411 L31.1316177,9.49323253 C32.5766328,7.9196992 34.6954941,7 37.0168857,7 Z M37.0168857,9 C35.2522777,9 33.6687449,9.68733797 32.6047085,10.8460087 L32.6047085,10.8460087 L26.0468341,17.9871341 L19.4126481,10.9168467 C17.0942923,8.44609272 13.1652071,8.36097724 10.7489194,10.770235 C8.41791981,13.0803998 8.41831779,16.8336739 10.7642046,19.1586278 L10.7642046,19.1586278 L25.9482024,34.310002 L41.2417435,19.1562815 C42.3941005,18.0072491 43.0025775,16.5440622 43.0000303,14.9542328 C42.9941796,11.6774187 40.3078,9 37.0168857,9 Z" id="Combined-Shape"></path>
                    <path d="M37.0168857,0 C32.7076937,0 28.7283531,1.76115311 25.9757998,4.75851581 C20.2383349,-1.3561041 10.4630335,-1.65422017 4.41359089,4.37776974 C-1.47498825,10.2137159 -1.46523894,19.709685 4.40709136,25.5294292 L24.2079262,45.2877201 C25.1601081,46.237155 26.6988732,46.2355348 27.6494302,45.2942009 L47.5965046,25.5294292 C50.4416762,22.692466 52.0064394,18.9319909 52.0000198,14.9382076 C51.9853159,6.69140971 45.2664211,0 37.0168857,0 Z M37.0168857,2 C44.1664847,2 49.9872892,7.80138795 50.0000204,14.9417688 C50.0055798,18.4004626 48.6539519,21.6506826 46.1843355,24.1131742 L26.2417236,43.8735102 C26.0708691,44.0427068 25.7915591,44.0424342 25.6200953,43.8714651 L5.81978318,24.1136956 C0.727706824,19.0672017 0.726835224,10.8473877 5.82144168,5.79831758 C11.0305533,0.604247457 19.5074941,0.787882793 24.5173217,6.1270338 L25.9915852,7.69820877 L27.4488906,6.11129202 C29.8463525,3.50060227 33.3035351,2 37.0168857,2 Z" id="Shape-Copy-2"></path>
                </g>
            </g>
        </g>
    </g>
</svg>