<?xml version="1.0" encoding="UTF-8"?>
<svg width="21px" height="21px" viewBox="0 0 21 21" version="1.1" xmlns="http://www.w3.org/2000/svg" xmlns:xlink="http://www.w3.org/1999/xlink">
    <!-- Generator: Sketch 57.1 (83088) - https://sketch.com -->
    <title>icon_tools</title>
    <desc>Created with Sketch.</desc>
    <g id="Page-1" stroke="none" stroke-width="1" fill="none" fill-rule="evenodd">
        <g id="bj_offers" transform="translate(-179.000000, -736.000000)" fill="currentColor" fill-rule="nonzero">
            <g id="UI-Bars-/-Tab-Bars-/-Base-/-Light-/-5-Text-Icons" transform="translate(0.000000, 729.000000)">
                <g id="#3">
                    <g transform="translate(125.000000, 0.000000)">
                        <g id="icon_tools" transform="translate(54.000000, 7.000000)">
                            <path d="M11,13 L17,13 C17.5522847,13 18,13.4477153 18,14 L18,20 C18,20.5522847 17.5522847,21 17,21 L11,21 C10.4477153,21 10,20.5522847 10,20 L10,14 C10,13.4477153 10.4477153,13 11,13 Z M11.3,19.7 L16.7,19.7 L16.7,14.3 L11.3,14.3 L11.3,19.7 Z" id="Rectangle"></path>
                            <path d="M1,13 L7,13 C7.55228475,13 8,13.4477153 8,14 L8,20 C8,20.5522847 7.55228475,21 7,21 L1,21 C0.44771525,21 0,20.5522847 0,20 L0,14 C0,13.4477153 0.44771525,13 1,13 Z M1.3,19.7 L6.7,19.7 L6.7,14.3 L1.3,14.3 L1.3,19.7 Z" id="Rectangle"></path>
                            <path d="M1,3 L7,3 C7.55228475,3 8,3.44771525 8,4 L8,10 C8,10.5522847 7.55228475,11 7,11 L1,11 C0.44771525,11 0,10.5522847 0,10 L0,4 C0,3.44771525 0.44771525,3 1,3 Z M1.3,4.3 L1.3,9.7 L6.7,9.7 L6.7,4.3 L1.3,4.3 Z" id="Rectangle"></path>
                            <path d="M12,2 L18,2 C18.5522847,2 19,2.44771525 19,3 L19,9 C19,9.55228475 18.5522847,10 18,10 L12,10 C11.4477153,10 11,9.55228475 11,9 L11,3 C11,2.44771525 11.4477153,2 12,2 Z M12.3,8.7 L17.7,8.7 L17.7,3.3 L12.3,3.3 L12.3,8.7 Z" id="Rectangle" transform="translate(15.000000, 6.000000) rotate(-330.000000) translate(-15.000000, -6.000000) "></path>
                        </g>
                    </g>
                </g>
            </g>
        </g>
    </g>
</svg>