<?xml version="1.0" encoding="UTF-8"?>
<svg width="40px" height="40px" viewBox="0 0 40 40" version="1.1" xmlns="http://www.w3.org/2000/svg" xmlns:xlink="http://www.w3.org/1999/xlink">
    <!-- Generator: Sketch 57.1 (83088) - https://sketch.com -->
    <title>icn_veckolista</title>
    <desc>Created with Sketch.</desc>
    <g id="Page-1" stroke="none" stroke-width="1" fill="none" fill-rule="evenodd">
        <g id="bj_tools" transform="translate(-290.000000, -369.000000)" fill="#FF8B8C" fill-rule="nonzero">
            <g id="icn_veckolista" transform="translate(290.000000, 369.000000)">
                <path d="M35.6982059,0 L31.7178261,0 L31.7178261,3.38913453 C31.7178261,4.16675897 31.0852385,4.7994313 30.307614,4.7994313 C29.5299896,4.7994313 28.8973172,4.16675896 28.8973172,3.38913453 L28.8973172,0 L10.3639488,0 L10.3639488,3.38913453 C10.3639488,4.16675897 9.73127648,4.7994313 8.95365205,4.7994313 C8.17602761,4.7994313 7.54343999,4.16675896 7.54343999,3.38913453 L7.54343999,0 L3.56306011,0 C1.59837023,0 0,1.59837023 0,3.56301775 L0,35.6982059 C0,37.6628111 1.59837023,39.2611813 3.56306011,39.2611813 L35.6982059,39.2611813 C37.6628958,39.2611813 39.261266,37.6628111 39.261266,35.6982059 L39.261266,3.56301776 C39.261266,1.59837023 37.6628958,0 35.6982059,0 Z M3.56306011,1.561518 L5.98192198,1.561518 L5.98192198,3.38913453 C5.98192198,5.02778806 7.31504086,6.3609493 8.95365204,6.3609493 C10.5923479,6.3609493 11.9254668,5.02778805 11.9254668,3.38913453 L11.9254668,1.561518 L27.3357992,1.561518 L27.3357992,3.38913453 C27.3357992,5.02778806 28.6689181,6.3609493 30.307614,6.3609493 C31.9462252,6.3609493 33.2793441,5.02778805 33.2793441,3.38913453 L33.2793441,1.561518 L35.6982059,1.561518 C36.8018244,1.561518 37.699748,2.45939933 37.699748,3.56301775 L37.699748,10.5030554 L1.561518,10.5030554 L1.561518,3.56301776 C1.561518,2.45939933 2.45944169,1.561518 3.56306011,1.561518 Z M35.6982059,37.6996633 L3.56306011,37.6996633 C2.45944168,37.6996633 1.561518,36.8018244 1.561518,35.6982059 L1.561518,12.0645734 L37.6997481,12.0645734 L37.6997481,35.6982059 C37.6997481,36.8018244 36.8018244,37.6996633 35.6982059,37.6996633 Z" id="Shape"></path>
                <path d="M24.3674238,18.42173 L18.0095838,24.77949 L15.4626238,22.21029 C14.9027838,21.64549 13.9910238,21.64149 13.4262238,22.20141 C12.8614238,22.76133 12.8574238,23.67309 13.4173438,24.23781 L16.9824638,27.83421 C17.2520638,28.10621 17.6189438,28.25957 18.0019838,28.26045 C18.0030238,28.26045 18.0040638,28.26045 18.0051038,28.26045 C18.3869438,28.26045 18.7532638,28.10877 19.0233438,27.83869 L26.4038238,20.45821 C26.9662238,19.89589 26.9662238,18.98413 26.4038238,18.42181 C25.8414238,17.85941 24.9297438,17.85941 24.3674238,18.42173 Z" id="Path"></path>
            </g>
        </g>
    </g>
</svg>