<?xml version="1.0" encoding="UTF-8"?>
<svg width="38px" height="38px" viewBox="0 0 38 38" version="1.1" xmlns="http://www.w3.org/2000/svg" xmlns:xlink="http://www.w3.org/1999/xlink">
    <!-- Generator: Sketch 57.1 (83088) - https://sketch.com -->
    <title>icn_viktkurva</title>
    <desc>Created with Sketch.</desc>
    <g id="Page-1" stroke="none" stroke-width="1" fill="none" fill-rule="evenodd">
        <g id="bj_tools" transform="translate(-169.000000, -249.000000)" fill="#FF8B8C" fill-rule="nonzero">
            <g id="icn_viktkurva" transform="translate(169.000000, 249.000000)">
                <path d="M34.05015,0.03825 L3.12885,0.03825 C1.4229,0.03825 0.03825,1.4229 0.03825,3.12885 L0.03825,34.05015 C0.03825,35.7561 1.4229,37.14075 3.12885,37.14075 L34.05015,37.14075 C35.7561,37.14075 37.14075,35.7561 37.14075,34.05015 L37.14075,3.12885 C37.14075,1.4229 35.7561,0.03825 34.05015,0.03825 Z M35.0829,34.05015 C35.0829,34.61625 34.6239,35.0829 34.05015,35.0829 L19.62225,35.0829 L19.62225,19.14795 C19.62225,18.58185 19.16325,18.1152 18.5895,18.1152 C18.0234,18.1152 17.55675,18.5742 17.55675,19.14795 L17.55675,35.0829 L3.12885,35.0829 C2.56275,35.0829 2.0961,34.6239 2.0961,34.05015 L2.0961,3.12885 C2.0961,2.56275 2.5551,2.0961 3.12885,2.0961 L34.05015,2.0961 C34.61625,2.0961 35.0829,2.5551 35.0829,3.12885 L35.0829,34.05015 Z" id="Shape"></path>
                <path d="M28.7793,6.0588 C25.6122,4.5747 22.08555,3.78675 18.5895,3.78675 C15.09345,3.78675 11.5668,4.5747 8.3997,6.06645 C8.1549,6.1812 7.96365,6.3954 7.87185,6.64785 C7.78005,6.90795 7.79535,7.191 7.9101,7.4358 L11.08485,14.19075 C11.1996,14.43555 11.4138,14.6268 11.66625,14.7186 C11.92635,14.8104 12.2094,14.7951 12.4542,14.68035 C14.35905,13.7853 16.4016,13.311 18.5895,13.311 C20.69325,13.311 22.8123,13.7853 24.71715,14.68035 C24.85485,14.7492 25.1532,14.8257 25.5051,14.7186 C25.7652,14.63445 25.97175,14.43555 26.0865,14.19075 L29.26125,7.4358 C29.376,7.191 29.3913,6.90795 29.2995,6.64785 C29.21535,6.38775 29.0241,6.1812 28.7793,6.0588 Z M24.65595,12.4083 C23.04945,11.77335 21.3435,11.3985 19.62225,11.28375 L19.62225,8.2161 C19.62225,7.65 19.16325,7.18335 18.5895,7.18335 C18.0234,7.18335 17.55675,7.64235 17.55675,8.2161 L17.55675,11.28375 C15.8355,11.39085 14.12955,11.77335 12.52305,12.4083 L10.2204,7.5123 C12.85965,6.41835 15.73605,5.8446 18.5895,5.8446 C21.44295,5.8446 24.3117,6.41835 26.9586,7.5123 L24.65595,12.4083 Z" id="Shape"></path>
            </g>
        </g>
    </g>
</svg>